<svg xmlns="http://www.w3.org/2000/svg" viewBox="0 0 542.92 906.36"><defs><style>.cls-1{fill:#edb12b;}.cls-2{fill:#baccce;}.cls-3{fill:#cadadd;}</style></defs><g id="Layer_2" data-name="Layer 2"><g id="objects"><path class="cls-1" d="M526.26,516.87H49.65V107.59H526a16.64,16.64,0,0,1,12.41,27.72L391.13,300.23a16.64,16.64,0,0,0-.05,22.1L538.72,489.21A16.64,16.64,0,0,1,526.26,516.87Z"/><path class="cls-2" d="M18.3,39.93H61.56a0,0,0,0,1,0,0v844.8a21.63,21.63,0,0,1-21.63,21.63h0A21.63,21.63,0,0,1,18.3,884.73V39.93a0,0,0,0,1,0,0Z"/><circle class="cls-3" cx="39.93" cy="39.93" r="39.93"/><rect class="cls-1" x="16.52" y="100.38" width="46.83" height="421.76" rx="1.75"/></g></g></svg>