<svg version="1.2" xmlns="http://www.w3.org/2000/svg" viewBox="0 0 1316 1128" width="2000" height="1714"><defs><linearGradient id="P" gradientUnits="userSpaceOnUse"/><linearGradient id="g1" x2="1" href="#P" gradientTransform="matrix(178.455,97.146,-200.977,369.19,224.221,27.711)"><stop stop-color="#764a38"/><stop offset=".46" stop-color="#b56731"/><stop offset="1" stop-color="#874f32"/></linearGradient><linearGradient id="g2" x2="1" href="#P" gradientTransform="matrix(74.793,992.719,-219.66,16.55,622.94,-454.362)"><stop stop-color="#a34f1f"/><stop offset="1" stop-color="#d37a37"/></linearGradient><linearGradient id="g3" x2="1" href="#P" gradientTransform="matrix(-66.667,148.249,-324.169,-145.778,907.523,985.386)"><stop stop-color="#764a38"/><stop offset=".46" stop-color="#b56731"/><stop offset="1" stop-color="#874f32"/></linearGradient><linearGradient id="g4" x2="1" href="#P" gradientTransform="matrix(-787.711,109.402,-31.63,-227.737,1313.446,1263.514)"><stop stop-color="#a34f1f"/><stop offset="1" stop-color="#d37a37"/></linearGradient><linearGradient id="g5" x2="1" href="#P" gradientTransform="matrix(407.848,36.526,-5.237,58.472,137.042,922.943)"><stop stop-color="#764a38"/><stop offset=".46" stop-color="#b56731"/><stop offset="1" stop-color="#874f32"/></linearGradient><linearGradient id="g6" x2="1" href="#P" gradientTransform="matrix(66.425,-3.026,21.36,468.936,157.764,538.178)"><stop stop-color="#764a38"/><stop offset=".46" stop-color="#b56731"/><stop offset="1" stop-color="#874f32"/></linearGradient><linearGradient id="g7" x2="1" href="#P" gradientTransform="matrix(-52.386,173.84,-392.74,-118.351,1197.341,970.045)"><stop stop-color="#764a38"/><stop offset=".46" stop-color="#b56731"/><stop offset="1" stop-color="#874f32"/></linearGradient><linearGradient id="g8" x2="1" href="#P" gradientTransform="matrix(-767.569,193.441,-57.358,-227.597,1625.147,1221.163)"><stop stop-color="#a34f1f"/><stop offset="1" stop-color="#d37a37"/></linearGradient><linearGradient id="g9" x2="1" href="#P" gradientTransform="matrix(-57.635,470.848,-46.156,-5.65,1172.172,535.04)"><stop stop-color="#764a38"/><stop offset=".46" stop-color="#b56731"/><stop offset="1" stop-color="#874f32"/></linearGradient><linearGradient id="g10" x2="1" href="#P" gradientTransform="matrix(65.087,146.405,-350.699,155.91,510.078,137.771)"><stop stop-color="#764a38"/><stop offset=".46" stop-color="#b56731"/><stop offset="1" stop-color="#874f32"/></linearGradient><linearGradient id="g11" x2="1" href="#P" gradientTransform="matrix(732.813,90.228,-28.918,234.866,141.302,433.12)"><stop stop-color="#a34f1f"/><stop offset="1" stop-color="#d37a37"/></linearGradient><linearGradient id="g12" x2="1" href="#P" gradientTransform="matrix(342.456,46.168,-8.915,66.126,858.877,47.712)"><stop stop-color="#764a38"/><stop offset=".46" stop-color="#b56731"/><stop offset="1" stop-color="#874f32"/></linearGradient><linearGradient id="g13" x2="1" href="#P" gradientTransform="matrix(66.587,141.594,-308.175,144.923,502.593,-19.094)"><stop stop-color="#764a38"/><stop offset=".46" stop-color="#b56731"/><stop offset="1" stop-color="#874f32"/></linearGradient><linearGradient id="g14" x2="1" href="#P" gradientTransform="matrix(-186.544,69.627,-184.426,-494.112,1298.833,565.943)"><stop stop-color="#764a38"/><stop offset=".46" stop-color="#b56731"/><stop offset="1" stop-color="#874f32"/></linearGradient></defs><style>.a{fill:url(#g1)}.b{fill:#ae501d}.c{fill:url(#g2)}.d{fill:#ae4c18}.e{fill:#d46626}.f{mix-blend-mode:multiply;fill:#d37a37}.g{fill:url(#g3)}.h{fill:url(#g4)}.i{fill:url(#g5)}.j{fill:#d37a37}.k{opacity:.4;mix-blend-mode:multiply;fill:#d37a37}.l{opacity:.4;mix-blend-mode:screen;fill:#d37a37}.m{fill:url(#g6)}.n{fill:url(#g7)}.o{fill:url(#g8)}.p{fill:url(#g9)}.q{fill:url(#g10)}.r{fill:url(#g11)}.s{fill:url(#g12)}.t{fill:url(#g13)}.u{fill:url(#g14)}.v{opacity:.4;mix-blend-mode:multiply;fill:#874f32}.w{fill:#65433f}.x{fill:#744d37}.y{fill:#874f32}.z{opacity:.5;mix-blend-mode:multiply;fill:#874f32}.A{fill:#fff}.B{opacity:.3;mix-blend-mode:overlay;fill:#fff}.C{mix-blend-mode:multiply;fill:#04ba2f}.D{opacity:.2;mix-blend-mode:screen;fill:#f6c2a4}</style><path class="a" d="m193.3 500.2c2.2 7.4-3.4 70-3.6 73.9-0.2 4 4.4 15 5.7 15 1.3 0.1 11-10.2 10.6-16.2-0.3-5.9-0.1-21.6 1.2-41.2 17.8-173.5 20.8-502 20.8-502l-8.1 7.9-54.1 429.9 25.9 35.2c0.3-3.9 0.7-5.5 1.6-2.5z"/><path class="b" d="m186.9 578.6c-0.6-18.4 1.8-40.5 3.5-53.6 0.6-5.1 0.9-11.1 1.1-16.1 0.1-2.4 0.1-4.5 0.2-6.2l-25.9-35.2-10.9 75.9c0 1.7-0.1 3.5-0.3 5.6-1 13 27.5 32.5 28.9 37.2 1.8 0.8 1.5-2.9 3.4-7.6z"/><path class="b" d="m191.4 56.9q0.1-2.1 0.2-4.2c-0.3 5.5-0.5 10.1-0.2 4.2z"/><path class="b" d="m151.4 556c-0.1-10.5 3-26.7 3-26.7 0 0 0.9 4.7 0.5 14.1l65-505.8 8.1-7.9c0 0-32.4 3.6-33.2 5.7-1.6 4-2 4.2-2.6 8.1-0.2 1.6-0.4 5.6-0.6 9.2q-0.1 2.1-0.2 4.2c-0.3 5.9-0.1 1.3 0.2-4.2 0.1-7.8-0.3-13.8-1.1-15.5-0.8-2-14.8 1.4-14.8 1.4 0 0-2.8 3.3-3.5 11.1-0.8 7.9-1 8.2-0.6 0.4 0.5-7.8-0.8-7.9-1.8-7.9-5.4-0.3-10.9 6.5-11.5 11-0.6 4.6-2.5 131.2-4 171.8-3.5 49.6-11.2 250-13.4 291.9-2.1 41.8 7.3 62.7 7.3 62.7l2.2-5.3c0 0 1-7.8 1-18.3z"/><path class="c" d="m158.2 67.6c0 4.9-0.2 9.8-0.2 14.7-0.1 14-5.3 110.4-5.6 124.4q-0.2 13.2-0.7 26.4c-3.6 49.7-11.2 250-13.4 291.8-2.2 41.9 1.4 52.5 1.4 52.5l8.8 2.4c0 0 0.3-5.2 0.2-15.7-0.1-10.5 3-26.8 3-26.8 0 0 1.3 6.7 0.3 19.7-1.1 13.1-1.8 20.2-0.4 24.9 8 5 29.1 5.9 32.7 4.8-0.7-18.4 1.8-40.6 3.4-53.6 0.7-5.1 0.9-11.1 1.1-16.1 0.3-7.8 0.5-13.1 1.8-8.7 2.2 7.3-3.3 70-3.6 73.9-0.2 3.9 6.4 6.9 7.7 6.9 1.3 0.1 3.6-2.4 3.3-8.3-0.3-5.9-0.2-21.7 1.2-41.3 17.7-173.5 20.7-501.9 20.7-501.9 0 0-2.4 0.3-5.8 0.7q-0.5 0.1-1.1 0.2c-1.8 0.3-3.8 0.6-5.9 0.9-2.8 0.4-5.6 1-8.1 1.5-2.3 0.5-4.2 1-5.5 1.5-0.8 0.4-1.4 0.7-1.4 1.1-0.1 2.6-1.7 26.8-2.2 30.7-0.6 3.9-1.7 0.6-1.2-9.2 0.6-9.8 0-17.7-0.8-19.7-0.5-1.2-5-1.2-8.8-1.1-2.8 0.2-5 0.5-5 0.5 0 0-2.3 2.5-3 10.3-0.8 7.8-2.5 11-2.1 3.2 0.4-7.9 0-7.7-0.9-8.6-0.6-0.7-1.6-0.2-2.5-0.1 0 0-7.2 1.8-7.3 4.3-0.2 2.4-0.1 13.8-0.1 13.8z"/><path class="d" d="m171.6 50.3q0 0.3-0.1 1.4 0-0.2 0.1-0.3 0-0.1 0-0.3 0-0.5 0-0.8z"/><path class="d" d="m171.6 50.1q0 0.1 0 0.2 0-0.2 0-0.2z"/><path class="d" d="m180.7 44.2l-0.1-1.2q0 0 0 1.2 0.1 0 0.1 0z"/><path class="d" d="m209.9 39q0.1-0.6 0.1-0.6c0 0 0 0.2-0.1 0.6q0 0 0 0z"/><g style="opacity:.4;mix-blend-mode:multiply"><path class="e" d="m153.5 582.6c0 0 2.3-56.9 1.9-67.4-0.4-9.8 5-156.7 6.7-189.2 0.1-2.1 0.2-3.9 0.3-5.2 0.6-6.7 1.2-17.4 1.8-29.2 1.4-26.3 2.7-58.4 2.9-65.7 0.2-10 3.8-161.3 4.5-174.5q-0.1 0.1-0.1 0.3c-0.2 2.3-0.5 7.4-0.9 14.2-0.6 11.1-1.1 26.9-0.8 42.8 0.5 21.2-4.3 128.8-5.5 152.3-0.5 9.1-1.2 18.1-2.1 26.3-0.3 2.7-0.5 6.6-0.8 11.6-2.6 49.4-7.3 228.9-8.1 243.8-0.8 16.3 0.2 39.9 0.2 39.9z"/><path fill-rule="evenodd" class="e" d="m146.6 500.4c0 0 1.9-45.8 1.6-54.2-0.3-8 4.7-131.7 6.1-157.8q0.1-2.6 0.2-4.2c0.5-5.4 1-13.9 1.5-23.4 1.1-21.2 2.2-47.1 2.3-52.9 0.2-8.2 4.1-146.9 4.6-156.8q0-0.3 0.1-0.6c-0.1 0.8-0.5 5.6-0.9 12.5-0.4 9-0.9 21.7-0.6 34.5 0.4 17-4.5 119.8-5.5 138.6-0.3 7.4-0.9 14.6-1.6 21.2-0.2 2.1-0.4 5.3-0.6 9.3-2.1 39.8-6.7 189.7-7.3 201.6-0.7 13.2 0.1 32.2 0.1 32.2zm16.4-450q0 0 0 0.1 0-0.1 0-0.1z"/><path class="e" d="m172.8 586.9c0-1.7-1-36.9-1-48.6 0-12.5 1-148.9 1.2-164.6 0.2-15.7 0.7-116.6 1.1-130.4 0.4-10.7 6-158 6.3-186.7-1 32-8.7 207.1-9.4 241-0.9 41.2-2.5 144.8-2.5 168.4 0.1 23.6 4.1 118.2 4.3 120.8q0 0 0 0.1z"/><path class="e" d="m215.5 241.3c-2.8 10.3-14.9 149.5-16.1 172.4-1.2 22.9-5.3 131.5-6 143.9-0.6 12.4 0.8 23 1.1 22.4-0.8-2.1 4.5-115.9 6.8-165.6 0.1-2.1 3.6-32.5 3.7-34.9 2.7-51 10.5-138.2 10.5-138.2z"/><path class="e" d="m184.3 586.7c0 0-0.5-4-0.9-7.3 0 0-2.9-104.3-1.8-131.1 1.1-26.9 1.9-97.1 1.8-106.9q0-1-0.1-0.7c-0.1 2.3-3.7 108.7-4.5 125.8-1 17.6 0 111.3 1.4 120.6 1.9 0 3.3-0.2 4.1-0.4z"/><path class="e" d="m206.7 102.4c1.5-28.6 3-59.1 3.2-63.4q0 0 0 0c-0.5 7.6-11.5 180.3-12 189.7-0.5 9.8-6.3 102.6-6.3 102.6 0 0-6.9-58-8-67.9-1.1-9.9 2.3-161.9 2.1-171-0.1-9.2-2.9-48-2.9-48 0 0 0.2 32.1 0.8 51.2 0.6 19-5.6 141.3-1.3 174.3 4.3 33 9.1 77.1 9.1 77.1 0 0 6.4-92.8 8.3-122.2 0.6-9.8 6.2-107 7-122.4z"/><path fill-rule="evenodd" class="e" d="m190.7 244.1c-0.4 5.2-0.3-8.7-0.2-30 1.4-20.4 6.2-105.1 6.8-116.6 0.7-13.7 4.8-55.5 4.8-55.5-0.1 1.3-10.2 186.5-11.4 202.1zm-0.5-26.3c0-3.4 0.5-25.8 0.8-51.4-0.2 16.9-0.4 33.9-0.5 47.7-0.2 4-0.4 5.5-0.3 3.7zm0.9-131.3q-0.1-1.6-0.2-2.9 0.1 1.1 0.2 2.9zm0.3 6.8c0.2 3.5 0.1 16.8 0 34.3 0.1-18.1 0-33.7-0.3-41.1q0.2 3 0.3 6.8zm0 34.3c-0.1 12.4-0.2 26-0.4 38.8 0.1-13.6 0.3-27.1 0.4-38.8zm-1.5-53.4c0 0 0.5 3 1 9.4-0.6-5.6-1-9.4-1-9.4z"/></g><path class="f" d="m200.9 59.4q-4.9 0.3-9.9 0.6c-0.4 6.3-0.9 12.4-1.1 14.2-0.6 3.9-1.7 0.6-1.2-9.2q0.2-2.5 0.2-4.9c-6.3 0.4-12.6 0.9-18.9 1.5-0.5 1.4-0.9 1.5-1 0-3.6 0.4-7.2 0.8-10.8 1.2 0 2.7 0 4.8 0 4.8 0 4.9-0.2 9.8-0.2 14.7-0.1 6.9-1.4 34-2.7 61.3 0.7-0.1 1.5-0.2 2.2-0.3 0.4-0.5 0.8-0.8 1.3-0.8q2.7 0.2 5.3 0.4c6.9-0.1 13.8 0.4 20.6 0.5 11.2 0.3 22.3 0.3 33.5 0.9 0.8-37.2 1.2-67.5 1.5-86.2-6.3 0.7-12.5 1-18.8 1.3z"/><path class="f" d="m201.2 518.1c-4.7-6-3.9-14.4-7.3-22.1-2.2-5.1-3.9-8.2-6.9-1.3-1.3 3.1-2.4 6.3-3.2 9.6-1.3 4.7-2.5 9.2-4.2 13.6-0.4 1-1.5 1.6-2.2 0.9-5.1-4.2-2.1-2.1-7.1-0.8-4.2 1-8.5 0.5-12.7-0.5-4.3-1-8.4-2.4-12.6-3.9-2.1-0.2-4.1-0.5-6.1-1.1-0.2 5-0.4 9.2-0.6 12.4-2.2 41.9 1.4 52.5 1.4 52.5l8.8 2.4c0 0 0.3-5.2 0.2-15.7-0.1-10.5 3-26.8 3-26.8 0 0 1.3 6.7 0.3 19.7-1.1 13.1-1.8 20.2-0.4 24.9 8 5 29.1 5.9 32.7 4.8-0.7-18.4 1.8-40.6 3.4-53.6 0.7-5.1 0.9-11.1 1.1-16.1 0.3-7.8 0.5-13.1 1.8-8.7 2.2 7.3-3.3 70-3.6 73.9-0.2 3.9 6.4 6.9 7.7 6.9 1.3 0.1 3.6-2.4 3.3-8.3-0.3-5.9-0.2-21.7 1.2-41.3 0.7-6.9 1.4-14 2-21.4z"/><path class="g" d="m542.6 976.2c-5.5 2.9-53.8-0.1-56.8-0.1-3.1 0-11.2 5.9-11.2 7.4 0 1.4 8.4 12 13 11.3 4.5-0.7 16.5-1.3 31.6-0.8 134 11.1 385.9-3.3 385.9-3.3l-6.4-8.8-332.4-39.1-25.7 31.8c3.1 0 4.4 0.4 2 1.6z"/><path class="b" d="m482.2 973.1c14.1-1.7 31.2-0.1 41.3 1.1 3.9 0.5 8.6 0.4 12.4 0.4 1.8 0 3.4-0.1 4.7 0l25.7-31.8-58.8-8.5q-1.9 0.1-4.2 0c-10.1-0.5-23.5 33.4-27 35.2-0.6 2.2 2.2 1.7 5.9 3.6z"/><path class="b" d="m882.4 950.1q1.7 0 3.2 0c-4.2-0.1-7.7 0-3.2 0z"/><path class="b" d="m497.7 930.9c8-0.6 20.7 2 20.7 2 0 0-3.6 1.3-10.9 1.4l391.2 47.6 6.4 8.8c0 0-4.4-37-6.1-37.9-3.1-1.6-3.2-2.1-6.3-2.5-1.2-0.1-4.3-0.2-7.1-0.2q-1.5 0-3.2 0c-4.5 0-1-0.1 3.2 0 6-0.2 10.6-1.1 11.9-2.1 1.5-1-1.8-16.9-1.8-16.9 0 0-2.7-3.2-8.8-3.6-6-0.4-6.3-0.6-0.3-0.5 6 0 6-1.4 6-2.6-0.1-6.2-5.6-12.2-9.1-12.6-3.5-0.4-100.7 4.2-131.9 4.7-38.2-1.4-192.2 0.6-224.4 0.3-32.2-0.3-47.8 11.8-47.8 11.8l4.2 2.2c0 0 6.1 0.8 14.1 0.1z"/><path class="h" d="m872.5 912.5c-3.8 0.2-7.5 0.3-11.2 0.5-10.8 0.6-85-0.1-95.8 0.3-6.7 0.3-13.5 0.4-20.2 0.6-38.3-1.5-192.2 0.6-224.4 0.3-32.2-0.3-40.2 4.4-40.2 4.4l-1.4 10.3c0 0 4.1 0 12.1-0.6 8-0.7 20.6 2 20.6 2 0 0-5 1.8-15 1.4-10.1-0.5-15.6-0.9-19.1 0.9-3.4 9.5-3.1 33.8-2 37.9 14-1.7 31.2-0.1 41.3 1.1 3.9 0.4 8.5 0.4 12.4 0.4 5.9-0.1 10-0.2 6.7 1.6-5.5 2.9-53.8-0.1-56.8-0.1-3.1-0.1-5 7.6-4.9 9.1 0 1.5 2 4.1 6.5 3.4 4.6-0.7 16.6-1.4 31.7-0.8 134 11 385.9-3.3 385.9-3.3 0 0-0.4-2.7-0.9-6.6q-0.1-0.7-0.2-1.3c-0.3-2.1-0.6-4.4-0.9-6.7-0.5-3.2-1.1-6.5-1.6-9.3-0.5-2.6-1-4.8-1.5-6.2-0.3-1-0.6-1.6-0.9-1.6-2 0-20.6-0.5-23.6-0.9-3.1-0.4-0.6-1.9 7-1.8 7.5 0.1 13.5-1 15-2.1 0.9-0.6 0.7-5.8 0.4-10.1-0.3-3.3-0.6-5.8-0.6-5.8 0 0-2-2.5-8.1-2.9-6-0.4-8.5-2.3-2.5-2.3 6 0.1 5.8-0.4 6.5-1.4 0.5-0.7 0.1-1.9 0-2.9 0 0-1.8-8.2-3.7-8.2-1.9 0-10.6 0.7-10.6 0.7z"/><path class="f" d="m540.8 970.6c-0.3-4.4-0.4-8.6 0.1-12.9 0.4-3.7-0.4-3.8-3.4-5-0.6-0.3-0.8-1.2-0.6-1.8 1.7-6.3 0.2-11.9 0.5-18.2 0.1-3.3-8.2-3.6-9.7-3.8-6.4-0.6-12.7-0.7-19.1-0.9-9.6-0.3-19.5-0.6-28.6-4.3l-0.7 5.2c0 0 4.1 0 12.1-0.6 8-0.7 20.6 2 20.6 2 0 0-5 1.8-15 1.4-10.1-0.5-15.6-0.9-19.1 0.9-3.4 9.5-3.1 33.8-2 37.9 14-1.7 31.2-0.1 41.3 1.1 3.9 0.4 8.5 0.4 12.4 0.4 5.9-0.1 10-0.2 6.7 1.6-5.5 2.9-53.8-0.1-56.8-0.1-3.1-0.1-5 7.6-4.9 9.1 0 1.5 2 4.1 6.5 3.4 4.6-0.7 16.6-1.4 31.7-0.8 9.7 0.7 19.9 1.4 30.7 2-1.3-5.5-2.2-11-2.7-16.6z"/><path class="f" d="m895.1 958c-0.5-2.6-1-4.8-1.5-6.2-0.3-1-0.6-1.6-0.9-1.6-2 0-20.6-0.5-23.6-0.9-3.1-0.4-0.6-1.9 7-1.8 7.5 0.1 13.5-1 15-2.1 0.9-0.6 0.7-5.8 0.4-10.1-0.3-3.3-0.6-5.8-0.6-5.8 0 0-2-2.5-8.1-2.9-6-0.4-8.6-2.3-2.5-2.3 6 0.1 5.8-0.4 6.5-1.4 0.2-0.2 0.2-0.6 0.2-1-9.9 3.2-20.1 4.8-30.4 5.9-15.2 1.6-30.1 3.8-45.1 7.3-4.2 1-47.2 9-47.1 10.9 0 5.4 1.1 12.2-1.3 17.2-1.8 3.8-7.6 4.4-1.1 7.1 0.7 0.2 0.7 1.1 0.6 1.7-1 5.3-1.4 10.4-1.3 15.5 77.2-2.2 137.4-5.6 137.4-5.6 0 0-0.4-2.7-0.9-6.6q-0.1-0.7-0.2-1.3c-0.3-2.1-0.6-4.4-0.9-6.7-0.5-3.2-1.1-6.5-1.6-9.3z"/><path class="d" d="m886.5 927q-0.3-0.1-1.1-0.1 0.1 0 0.2 0 0.1 0 0.3 0.1 0.3-0.1 0.6 0z"/><path class="d" d="m886.6 927q0 0-0.1 0c0.1 0 0.1 0 0.1 0z"/><path class="d" d="m891.6 937.1l0.9-0.1q0 0-0.9 0 0 0.1 0 0.1z"/><path class="d" d="m897.1 970.5q0.4 0 0.4 0 0 0-0.4 0z"/><g style="opacity:.4;mix-blend-mode:multiply"><path class="e" d="m477.4 934.8c0 0 43.8-0.4 51.8-1.4 7.5-1 120.4-2.8 145.4-2.6q2.5 0.1 4 0.1c5.2 0.3 13.3 0.5 22.4 0.6 20.3 0.1 45-0.1 50.6-0.3 7.7-0.3 123.9-4.2 134-4.3q-0.1 0-0.2 0c-1.8-0.1-5.7-0.2-10.9-0.3-8.6 0-20.7 0.2-32.9 1.5-16.2 1.7-99 1.9-117 1.8-7.1-0.1-14-0.4-20.3-1-2.1-0.1-5.1-0.2-8.9-0.3-38.1-0.3-175.9 4-187.4 3.9-12.5-0.1-30.6 2.3-30.6 2.3z"/><path fill-rule="evenodd" class="e" d="m540.1 922.5c0 0 35.2-0.3 41.7-1.2 6-0.7 101.1-1.7 121.2-1.5 1.3 0 2.4 0.1 3.2 0.1 4.2 0.2 10.8 0.3 18.1 0.4 16.3 0.1 36.1 0 40.6-0.2 6.3-0.2 112.9-3.2 120.5-3.1q0.3-0.1 0.5 0c-0.7-0.1-4.3-0.2-9.7-0.3-6.9 0-16.6 0.1-26.5 1.1-13 1.4-92 1.4-106.5 1.2-5.7 0-11.2-0.2-16.4-0.7-1.6-0.1-4-0.2-7.1-0.2-30.6-0.3-145.7 2.6-155 2.5-10.1-0.1-24.6 1.9-24.6 1.9zm345.9-5.5q-0.1 0-0.1 0 0.1 0 0.1 0z"/><path class="e" d="m475.2 957.3c1.3-0.1 28.2-3.2 37.2-3.8 9.5-0.7 114.1-6.8 126.2-7.4 12.1-0.7 89.5-5.5 100-5.8 8.2-0.2 121.5-1.7 143.5-2.8-24.6 0.5-159.2 1.1-185.2 2.1-31.7 1.2-111.2 4.9-129.3 6.3-18.1 1.3-90.4 11-92.4 11.4z"/><path class="e" d="m742.3 987.8c-8.1-2.7-115.4-9-133-9.2-17.6-0.1-101.1 1-110.7 0.9-9.5-0.1-17.5 2.1-17 2.4 1.5-1 89-1 127.2-1.1 1.7 0 25.2 2.4 27 2.4 39.3 0.3 106.5 4.6 106.5 4.6z"/><path class="e" d="m475.9 970.5c0 0 3-0.7 5.5-1.4 0 0 79.8-8.9 100.5-9.1 20.6-0.2 74.5-3.1 82-3.8q0.8-0.1 0.5-0.1c-1.8 0-83.5 1.7-96.6 1.6-13.6-0.2-85.4 6-92.4 8.1 0.1 2.2 0.3 3.8 0.5 4.7z"/><path class="e" d="m848.3 970.2c22 0.2 45.5 0.3 48.8 0.3-5.9-0.2-138.8-3.6-146-3.6-7.6-0.1-79-1.8-79-1.8 0 0 44.1-11 51.6-12.8 7.5-1.8 124.2-6.2 131.2-6.8 7.1-0.7 36.7-6 36.7-6 0 0-24.7 2-39.2 3.7-14.6 1.8-108.7 1.2-133.7 8-25.1 6.7-58.7 14.5-58.7 14.5 0 0 71.5 2.5 94.1 3 7.6 0.2 82.4 1.4 94.2 1.5z"/><path fill-rule="evenodd" class="e" d="m861.9 950.9c4.9-0.9 7.2-1.6 7.2-1.6 0 0-2.9 0.6-7.2 1.6zm32.5 10.7c0 0-32.2-2.5-42.8-2.5-8.9-0.1-74-1-89.8-1.5-16.3 0.9-27 1.7-22.9 1.8 12 0.5 154.5 2.2 155.5 2.2zm-132.6-4c10.5-0.6 23.4-1.3 36.2-2-19.5 1-36.4 1.7-39 1.8-1.4 0-0.2 0.1 2.8 0.2zm100.1-6.7q-1.1 0.2-2.3 0.4 1.4-0.2 2.3-0.4zm-2.3 0.4c-5.8 0.8-17.9 1.8-31.7 2.6 13.6-0.8 23.9-1.4 26.6-1.8q2.8-0.4 5.1-0.8zm-61.6 4.3c9.8-0.5 20.3-1.1 29.9-1.7-9 0.5-19.4 1.1-29.9 1.7z"/></g><path class="i" d="m198.6 962.2c-5.5 2.3-50.9-5.7-53.7-6.1-2.9-0.3-11.3 4.8-11.4 6.3-0.1 1.5 6.8 13.1 11.1 12.9 4.3-0.3 15.8 0.3 30 2.4 125.6 25.2 365.3 37 365.3 37l-5.1-9.6-310.4-74.3-27.5 29.5c2.8 0.4 4 0.8 1.7 1.9z"/><path class="b" d="m141.8 952.7c13.5-0.3 29.5 3.2 38.9 5.4 3.7 0.9 8.1 1.4 11.7 1.7 1.7 0.2 3.3 0.3 4.5 0.5l27.5-29.5-54.7-14.7q-1.8-0.2-4-0.6c-9.5-1.4-25.7 31.5-29.2 33-0.7 2.1 2 1.9 5.3 4.2z"/><path class="b" d="m522.6 971.1q1.6 0.2 3.1 0.3c-4-0.5-7.3-0.8-3.1-0.3z"/><path class="b" d="m160.8 911.6c7.6 0.2 19.3 4.2 19.3 4.2 0 0-3.6 0.9-10.4 0.3l365.1 89 5.1 9.6c0 0-0.3-38-1.8-39.1-2.8-2-2.9-2.5-5.7-3.2-1.2-0.3-4.1-0.7-6.7-1q-1.5-0.1-3.1-0.3c-4.2-0.5-0.9-0.2 3.1 0.3 5.7 0.4 10.1 0 11.4-0.8 1.5-1 0-17.4 0-17.4 0 0-2.2-3.5-7.9-4.5-5.6-1.1-5.9-1.3-0.2-0.6 5.7 0.7 5.8-0.8 5.9-1.9 0.6-6.4-4-13.1-7.3-13.8-3.3-0.8-95.7-6.2-125.2-9-36-5.4-181.9-19.4-212.3-23-30.4-3.7-46.4 6.9-46.4 6.9l3.8 2.7c0 0 5.6 1.4 13.3 1.6z"/><path class="j" d="m517.1 931.9c-3.5-0.1-7.1-0.4-10.7-0.6-10.2-0.5-80.3-9-90.5-9.6q-9.6-0.7-19.2-1.6c-36-5.4-181.9-19.4-212.3-23.1-30.4-3.6-38.5 0.4-38.5 0.4l-2.3 10.2c0 0 3.8 0.5 11.5 0.7 7.6 0.1 19.3 4.2 19.3 4.2 0 0-4.9 1.3-14.4-0.3-9.5-1.5-14.7-2.5-18.2-1-4.2 9.3-6.3 34-5.7 38.2 13.4-0.3 29.5 3.1 38.9 5.4 3.7 0.9 8.1 1.3 11.7 1.7 5.7 0.6 9.5 0.9 6.2 2.3-5.5 2.4-50.9-5.7-53.8-6-2.8-0.4-5.4 7.3-5.5 8.8-0.2 1.4 1.5 4.3 5.8 4.1 4.4-0.3 15.9 0.3 30.1 2.4 125.6 25.2 365.3 37 365.3 37 0 0-0.1-2.9-0.2-6.8q0-0.7 0-1.4c-0.1-2.1-0.2-4.5-0.2-6.9-0.2-3.3-0.4-6.6-0.6-9.6-0.2-2.6-0.4-4.9-0.7-6.4-0.2-1.1-0.5-1.7-0.7-1.7-1.9-0.2-19.5-2.7-22.3-3.4-2.8-0.7-0.3-2 6.8-1.1 7.1 0.9 13 0.4 14.5-0.5 0.8-0.6 1.2-5.8 1.3-10.2 0.1-3.4 0.1-6 0.1-6 0 0-1.7-2.7-7.4-3.8-5.6-1-7.8-3.2-2.1-2.5 5.7 0.7 5.6 0.2 6.3-0.8 0.5-0.7 0.3-1.9 0.3-3 0 0-0.9-8.5-2.7-8.7-1.7-0.2-10.1-0.4-10.1-0.4z"/><path class="d" d="m528.9 948.1q-0.3 0-1-0.2c0 0 0.1 0.1 0.1 0.1 0.1 0 0.2 0 0.3 0q0.3 0 0.6 0.1z"/><path class="d" d="m529 948.1q-0.1 0-0.1 0 0.1 0 0.1 0z"/><path class="d" d="m532.7 958.9h0.9c0 0-0.4-0.1-0.9-0.1q0 0.1 0 0.1z"/><path class="d" d="m534.5 993.3q0.3 0 0.4 0.1-0.1-0.1-0.4-0.1z"/><path class="e" d="m141.2 913.4c0 0 41.4 4.2 49.1 4 7.2-0.2 114.1 9.7 137.8 12.5 1.5 0.2 2.8 0.4 3.8 0.5 4.8 0.9 12.6 1.9 21.1 2.9 19.2 2.3 42.6 4.6 47.9 5 7.3 0.5 117.5 8.6 127.1 9.7 0 0-0.1-0.1-0.1-0.1-1.8-0.3-5.5-0.8-10.4-1.4-8.1-1-19.5-2-31.2-2-15.5 0.1-93.8-8.3-110.9-10.4-6.6-0.7-13.1-1.7-19.1-3-1.9-0.4-4.8-0.8-8.3-1.2-36-4.3-166.8-14.4-177.6-15.7-11.9-1.4-29.2-0.8-29.2-0.8z"/><path class="e" d="m529.4 937.9q0 0-0.1 0 0.1 0 0.1 0zm-327.7-30.5c0 0 33.3 3.4 39.6 3.2 5.8-0.1 95.8 8.8 114.8 11.1q1.8 0.2 3 0.4c3.9 0.7 10.2 1.5 17.1 2.3 15.4 1.9 34.2 3.8 38.4 4.1 6 0.4 107.1 8.5 114.2 9.3 0.2 0.1 0.4 0.1 0.5 0.1-0.6-0.1-4-0.7-9.1-1.3-6.5-0.7-15.8-1.6-25.1-1.6-12.5 0-87.2-8.2-100.9-9.9-5.4-0.6-10.6-1.4-15.4-2.4-1.6-0.3-3.8-0.7-6.7-1-29-3.5-138.2-12.5-146.9-13.6-9.5-1.1-23.5-0.7-23.5-0.7z"/><path class="e" d="m136.7 935.9c1.3 0.1 27-0.2 35.6 0.1 9.1 0.3 108.7 5 120.2 5.6 11.5 0.6 85.1 3.8 95.2 4.6 7.7 0.6 115 10.9 135.9 12.1-23.2-2-150.6-15.5-175.4-17.2-30-2.1-105.6-6.6-122.9-7.1-17.2-0.5-86.6 1.8-88.5 1.9q0 0-0.1 0z"/><path class="e" d="m386.3 994.7c-7.4-3.5-108.2-21.2-124.9-23.2-16.6-1.9-95.7-9.5-104.7-10.6-9-1.1-16.9 0.3-16.4 0.7 1.5-1 84.3 8.2 120.4 12.1 1.6 0.2 23.6 5 25.3 5.2 37.1 4.5 100.3 15.8 100.3 15.8z"/><path class="e" d="m136.1 949.4c0 0 2.9-0.4 5.3-0.9 0 0 76.5-0.7 96 1.3 19.5 2 70.8 4.6 77.9 4.7 0.6 0 0.7 0 0.6 0-1.7-0.2-79.2-7.1-91.6-8.5-12.8-1.6-81.4-2.8-88.3-1.4-0.1 2.3 0 3.9 0.1 4.8z"/><path class="e" d="m488.4 988c20.7 2.4 42.9 5 46.1 5.3-5.6-0.8-131-18.1-137.8-18.9-7.1-0.8-74.5-10-74.5-10 0 0 42.8-6.6 50.1-7.6 7.3-1 118.1 6.7 124.8 6.8 6.7 0 35.3-2.3 35.3-2.3 0 0-23.5-0.5-37.5-0.3-13.9 0.2-102.9-10.2-127.2-5.9-24.4 4.3-57 8.7-57 8.7 0 0 67.3 9.9 88.7 12.8 7.1 1 77.8 10 89 11.4z"/><path fill-rule="evenodd" class="e" d="m385.9 965.6c-3.8-0.6 6.4-0.2 21.9 0.5 14.8 2.1 76.4 9.9 84.8 10.9 10 1.2 40.2 7 40.2 7-0.9-0.1-135.5-16.7-146.9-18.4zm19.3 0c2.3 0.2 16.9 1.2 34.3 2.1-11.3-0.6-22.4-1.1-31.7-1.6-2.8-0.4-4-0.6-2.6-0.5zm96.4 4.3q0.8 0 1.6-0.1-0.7 0.1-1.6 0.1zm-5.5 0.3c-2.5 0.1-11.9-0.3-24.3-0.8 13.3 0.5 24.7 0.8 29.8 0.5q-2.4 0.2-5.5 0.3zm-24.3-0.8c-10.3-0.5-21.8-1.1-32.3-1.7 11.3 0.6 22.7 1.2 32.3 1.7zm38.3-0.5c0 0-2.2 0.5-6.9 0.9 4.2-0.6 6.9-0.9 6.9-0.9z"/><path class="k" d="m521.1 995.2c-9.9 2.2-253.6-17.6-285.3-22.6-31.8-5-52.3-7.2-33.4-10.3 18.9-3.2-35.4-10.9-55.9-14.3-5-0.8-8.3-1.7-10.5-2.5 0 1.8 0 3.2 0.1 3.9 13.4-0.3 29.5 3.1 38.9 5.4 3.7 0.9 8.1 1.3 11.7 1.7 5.7 0.6 9.5 0.9 6.2 2.3-5.5 2.4-50.9-5.7-53.8-6-2.8-0.4-5.4 7.3-5.5 8.8-0.2 1.4 1.5 4.3 5.8 4.1 4.4-0.3 15.9 0.3 30.1 2.4 125.6 25.2 365.3 37 365.3 37 0 0-0.1-2.9-0.2-6.9q0-0.6 0-1.3c-0.1-2.2-0.2-4.5-0.2-6.9q-0.1-0.3-0.1-0.7c-2.4 4.5-6.1 4.4-13.2 5.9z"/><path class="l" d="m152.6 915.7c19.9 0.6 88.5 7.1 67.5 0.9-21.1-6.2 56.9-0.6 104.1 4.8 47.2 5.4 163.6 20.3 144.4 20.2-19.1-0.1-6.2 1.3 18.4 5.2 24.5 3.8 35.6 7.7 42.7 10.9 1.1 0.5 2.1 0.9 3 1.2 0-0.7 0-1.3 0-1.8 0.1-3.4 0.1-6 0.1-6 0 0-1.7-2.7-7.4-3.8-5.6-1.1-7.8-3.2-2.1-2.5 5.7 0.7 5.6 0.2 6.3-0.8 0.5-0.7 0.3-1.9 0.3-3 0 0-0.9-8.5-2.7-8.7-1.7-0.2-10.1-0.4-10.1-0.4-3.5-0.1-7.1-0.4-10.7-0.6-10.2-0.5-80.3-9-90.5-9.6q-9.6-0.7-19.2-1.6c-36-5.4-181.9-19.4-212.3-23.1-30.4-3.6-38.5 0.4-38.5 0.4l-2.3 10.2c0 0 3.8 0.5 11.5 0.7 7.6 0.1 19.3 4.2 19.3 4.2 0 0-4.9 1.3-14.4-0.3-9.5-1.5-14.7-2.5-18.2-1-1.1 2.4-2 5.9-2.8 9.8 2.7-3.2 6.9-5.5 13.6-5.3z"/><path class="f" d="m244.3 903.4c-27.2-2.8-49.9-5.2-59.9-6.4-24.4-2.9-34.4-0.9-37.4 0q-0.1 5.4-0.5 10.9c1.9 0.1 4.8 0.3 8.6 0.4 7.6 0.1 19.3 4.2 19.3 4.2 0 0-4.9 1.3-14.4-0.3-6.1-0.9-10.4-1.7-13.6-1.7-0.4 6.5-1 12.9-1.5 19.4-0.4 6.6-0.8 13.1-1.2 19.7 11.5 0.7 23.6 3.4 31.3 5.2 3.7 0.9 8.1 1.3 11.7 1.7 5.7 0.6 9.5 0.9 6.2 2.3-4.6 2-37.4-3.3-49.4-5.3q-0.4 6.1-0.5 12.1c5.6 0.1 15.2 0.9 26.5 2.5 24.5 4.9 53.4 9.3 84 13.2-3.3-25.9-5.4-52.1-9.2-77.9z"/><path class="m" d="m219.3 946.3c3.8 3.1 3.2 48.3 3.4 51.3 0.1 3 9.6 11.6 11.9 11.6 2.2 0 16.4-8.3 14.9-12.9-1.4-4.6-4-17.2-5.2-32.6-11-138.8-15.4-286.2-26.9-428.2-3.8 1-5.7 2-9.5 4.3-9.9 127.2 13.2 269.4-28.4 392.4 16.7 16.7 21.8 14.5 37.9 16.6-0.1-2.5 0.2-3.8 1.9-2.5z"/><path class="b" d="m218.4 1001.1c-3.1-14.2-1.5-29-0.5-37.9 0.4-3.5 0.1-7.3-0.2-10.5-0.1-1.5-0.3-2.8-0.3-3.9-16.1-2.1-21.2 0.1-37.9-16.6-5 14.4-7.4 23.5-12.3 47.9 0 1.3-0.1 2.8-0.2 4.3-0.8 10.6 43.9 21.1 46.4 22.7 1.7 1 2.4-2.4 5-6z"/><path class="b" d="m175.7 552.7c0-1.5-0.2-4.3-0.2-4.3 0 0 0.4 10.4 0.2 4.3z"/><path class="b" d="m162.6 991.1c-0.6-8.6 3-21.9 3-21.9 0 0 1.6 3.5 1.6 10.9 6.5-43 23.5-82.9 28.7-126 12.6-103.5 3.7-210.2 12-314.4 3.8-2.2 5.7-3.2 9.5-4.2 0 0-38.9-3.8-39.7-2.4-1.4 2.7-1.9 2.7-2.2 6.3-0.2 1.4-0.2 5.4 0 9 0.1 1.4 0.2 2.8 0.2 4.3 0.2 6 0.1 1.1-0.2-4.3-0.4-7.9-1.8-14.3-3.1-16.5-1.5-2.7-27.5-10.2-27.5-10.2 0 0-5 1.5-5.2 8.9-0.2 7.3-0.5 7.6-0.8 0.1-0.4-7.5-2.7-8-4.3-8.3-9.1-1.8-11.9 8.5-11.7 12.8 2.4 53 11.9 108.7 16.1 161.8 6.8 85.7 9.8 175.3 9.9 262.8 0.1 37.6 10.3 52.7 10.3 52.7 1.2-2.3 1.7-3.4 2.9-5.6 0 0 1.1-7.2 0.5-15.8z"/><path class="j" d="m124 547.9c0.4 4.3 0.8 8.8 1.2 13.2 1.3 12.7 8 104.1 9.4 117.3 0.9 8.3 1.8 16.7 2.3 24.8 6 86.7 9.8 176.5 10.5 264.5 0.2 38 2.3 46.3 2.3 46.3 2.9-0.3 5.1-0.6 10-1.5 0 0 0.1-4.7-0.4-13.6-0.6-9 2.8-23.1 2.8-23.1 0 0 2.2 4.9 1.4 15.9-0.8 11.1-1.2 20.1 0.7 21.1 5.7 2.9 49.9-4.3 50.6-5.3 2.6-3.6-1.2-29.8-0.1-38.4 0.5-3.4 0.2-7.2 0-10.3-0.3-4.8-0.7-7.9 1.7-6 3.9 3.2 2.6 48 2.7 51.1 0.1 3.1 12 5.3 14.2 5.3 2.2 0 6-2.1 4.5-6.8-1.4-4.6-3.8-17.1-4.3-31.7-5-138.1-14.5-289.2-25.6-430.9 0 0-3-0.2-7.2 0.2q-0.7 0.1-1.4 0.1c-2.2 0.3-4.6 0.5-7 0.7-3.3 0.3-6.6 0.3-9.4-0.2-2.5-0.3-4.5-1.2-5.9-1.5-1-0.1-1.7-0.2-1.7 0.2 0.1 2.5 0.4 27.3 0.2 31.4-0.4 4.1-2.4-0.6-2.7-11-0.4-10.5-2.1-19-3.8-21.7-0.9-1.6-9.1-5.5-16.5-8.3-5.7-2.1-9.9-3.1-9.9-3.1 0 0-3.9 1.2-4.1 8.6-0.2 7.4-2.7 9.7-3.1 2.3-0.4-7.5-1.1-7.5-2.5-8.5-1-0.8-2.6-0.5-3.7-0.3 0 0-6.4 4.7-6.3 7 0.1 2.2 1.1 12.2 1.1 12.2z"/><path class="d" d="m138.8 530.8c0 0.2 0.1 1.3 0.1 1.3 0 0 0-0.1 0-0.2 0-0.1 0-0.2 0-0.3q-0.1-0.4-0.1-0.8z"/><path class="d" d="m138.9 530.7c0 0-0.1 0.1-0.1 0.1z"/><path class="d" d="m155.6 530.9c-0.1-0.5-0.2-0.8-0.3-1.3 0 0-0.1 1 0.1 1.3 0 0 0.2 0 0.2 0z"/><path class="d" d="m195.6 540.5q0-0.4 0-0.4 0 0 0 0.4z"/><path class="e" d="m167.1 1012.5c0 0-0.1-46.3-0.7-53.9-4.2-44.5-2.7-94.5-3-141.5q0-2.6 0.1-4.1c0.2-5 0.2-13.8-0.4-24.6-1.2-24.2-3.8-58.6-4.7-66.7-6.4-63.2-19.5-189.8-19.5-189.8 0 0 0 0.2 0 0.2-0.1 2.2 0 7.1 0.4 13.7 0.6 11 2.4 27 5.2 44.6 8.5 53.3 11.1 109.7 14.5 164.3 0.5 9 0.7 17 0.4 23.3-0.1 2 0 5.4 0.2 9.8 2.8 63.6 6.1 128.9 5.2 192-0.2 12.9 2.3 32.7 2.3 32.7z"/><path fill-rule="evenodd" class="e" d="m153.8 945c0 0-0.8-39-1.4-46.4-3.8-44.5-2.8-92.6-5.2-138.9-0.1-1.5-0.1-2.7-0.1-3.6-0.1-4.6-0.5-12.3-1-21.1-1.3-19.5-3.6-45.1-4.3-51-5.7-50.9-11.5-102.2-15.7-153.4 0-0.2 0-0.6 0-0.6 0 0 0.2 5.2 0.6 11.7 0.5 8.3 1.8 20.3 3.5 32.5 6.2 44.1 9.2 90.6 12.6 135.8 0.5 7 0.7 13.5 0.6 19.1 0 1.9 0.1 4.7 0.3 8.4 4 59.3 7.4 120.3 8.2 179.5 0.1 11.2 1.9 28 1.9 28zm-27.7-415.1c0 0 0 0.1 0 0.1z"/><path class="e" d="m197.4 1008.2c-0.1-1.5-4.3-27.8-5-34.9-0.8-7.6-6.9-77.9-7.8-88.1-3.5-41.3-8.2-83.3-11.6-124.4-5.8-71.6-16.2-217.2-16.2-217.2 0 0 11.1 181.6 18 271.6 3.2 41.9 7.3 105.3 8.7 118.2 1.4 12.8 13.4 72.5 13.9 74.7q-0.1 0.1 0 0.1z"/><path class="e" d="m214.2 718.8c-3.7 55.7-1.9 112.3 2.1 167.2 1.2 16.4 10 89.8 10.6 99 0.6 9.2 4.7 17.3 4.8 16.9 7.7-21.4-9.3-79.4-13.6-119.2-0.2-1.6-0.8-29.7-1-31.6-3.9-43.9-4.3-88.1-2.9-132.3z"/><path class="e" d="m214.8 1007.5c0 0-1.1-3.1-2.2-5.7 0 0-12.3-61.7-12.3-73.6 0.1-11.8-2.6-47.9-3.4-54.6-0.1-0.4-0.1-0.6-0.1-0.5 0 1.7 1.1 56.1 0.8 63.5-0.3 7.6 7.7 69.6 10.6 71.4 1 0.6 5.4-0.3 6.6-0.5z"/><path class="e" d="m197.7 603.7c-0.9-30.2-1.9-59.2-2.1-63.2 1.1 69.6 2.5 139.2 5.2 208.5 0.4 11.2 3.3 106.2 3.3 106.2 0 0-12.2-41.9-14.1-53.5-10.9-67.1-10.9-143.4-18.8-213-1.2-10.9-11.5-55.9-11.5-55.9 0 0 5.4 35 8.4 57.7 9.1 70.2 5.8 147.4 20.8 217.4 8.9 40.9 16 57.8 16 57.8 0.1-41.5-1.8-83-3.1-124.4-1.4-45.8-2.8-91.7-4.1-137.6z"/><path class="e" d="m177.9 582c-1.4-7.6-2.4-11.3-2.4-11.3 0 0 1 4.5 2.4 11.3zm8.7-39.3q0 0 0 0c0 0-0.4 42.5 0.2 58.2 2.1 49.1 5.9 147.4 5.9 147.4l-14.8-166.3c0 0 1.2 7.1 1.7 11.6 7.2 60 16.5 184.1 16.5 184.1 0.1 0-6.7-156.6-9.5-235z"/><path class="n" d="m836.6 1001.3c-5.2 3.8-53.1 6-56.1 6.3-3 0.3-10.6 7.6-10.4 9.2 0.1 1.6 9.4 12.1 13.8 10.9 4.4-1.3 16.2-3.3 31.2-4.5 133.1-3.2 380.4-47.2 380.4-47.2l-7.1-8.8-331.4-4.7-22.5 37.2c3-0.2 4.3 0 2.1 1.6z"/><path class="b" d="m776.7 1004.8c13.7-3.5 30.8-3.7 40.8-3.5 3.9 0 8.5-0.5 12.3-1 1.8-0.2 3.4-0.4 4.7-0.6l22.5-37.2-58.7-2.6q-1.9 0.3-4.2 0.5c-10 0.6-20.3 38.8-23.6 41.2-0.4 2.4 2.4 1.5 6.2 3.2z"/><path class="b" d="m1169.6 934.6q1.6-0.1 3.2-0.4c-4.2 0.4-7.7 0.9-3.2 0.4z"/><path class="b" d="m788.3 957.3c7.9-1.6 20.5-0.1 20.5-0.1 0 0-3.4 1.8-10.5 2.7l390.1 7.3 7.1 8.8c0 0-7.6-39.6-9.3-40.3-3.2-1.4-3.4-1.9-6.4-2-1.2-0.1-4.3 0.2-7 0.5q-1.6 0.3-3.2 0.4c-4.5 0.5-1 0 3.2-0.4 5.8-0.9 10.3-2.4 11.5-3.6 1.3-1.3-3.3-18.1-3.3-18.1 0 0-2.9-3.1-8.9-2.9-6 0.3-6.4 0.1-0.4-0.5 6-0.6 5.8-2.3 5.7-3.4-0.6-6.8-6.6-12.7-10.1-12.8-3.5 0-99 16-129.7 20.1-37.9 2.8-189.7 22.4-221.5 25.8-31.8 3.3-46 18.1-46 18.1l4.3 1.9c0 0 6 0.2 13.9-1.5z"/><path class="o" d="m1156.5 895c-3.7 0.7-7.4 1.1-11 1.8-10.6 1.9-83.9 9.5-94.5 11.2-6.6 1-13.2 2-19.9 2.8-37.9 2.8-189.6 22.5-221.4 25.8-31.8 3.3-39.3 9.4-39.3 9.4l-0.4 11.3c0-0.1 3.9-0.4 11.8-2.1 7.9-1.6 20.6-0.1 20.6-0.1 0 0-4.8 2.4-14.8 3.1-10 0.7-15.5 0.8-18.7 3.2-2.5 10.7-0.1 37 1.3 41.2 13.7-3.4 30.8-3.6 40.8-3.4 4 0 8.5-0.5 12.3-1 5.9-0.8 9.9-1.3 6.8 1-5.2 3.7-53.1 6-56.1 6.3-3 0.3-4.2 8.8-4 10.4 0.1 1.6 2.4 4.2 6.8 2.9 4.3-1.2 16.2-3.3 31.2-4.5 133.1-3.1 380.4-47.1 380.4-47.1 0 0-0.5-2.9-1.4-7.1q-0.1-0.7-0.3-1.4c-0.5-2.2-1-4.6-1.6-7.1-0.7-3.4-1.5-6.9-2.3-9.9-0.7-2.7-1.4-5.1-2-6.5-0.4-1.1-0.8-1.7-1-1.6-2 0.2-20.4 1.7-23.4 1.6-3.1-0.1-0.8-1.9 6.7-2.7 7.5-0.8 13.3-2.6 14.7-4 0.8-0.8 0.1-6.3-0.6-11-0.5-3.5-1-6.2-1-6.2 0 0-2.2-2.4-8.3-2.2-5.9 0.2-8.6-1.5-2.7-2.2 6-0.6 5.8-1.1 6.3-2.2 0.5-0.9 0-2.2-0.3-3.2 0 0-2.4-8.7-4.3-8.5-1.8 0.2-10.4 2-10.4 2z"/><path class="f" d="m1158.3 937.5q0.1-1.2 0.2-2.3c-0.9 0-1.7 0-2.1 0-2.4-0.1-1.5-1.1 2.3-2 0.8-8.3 1.5-16.6 2.6-24.8 0.7-4.9 1.3-9.8 1.5-14.7-2.9 0.6-6.3 1.3-6.3 1.3-3.7 0.7-7.4 1.1-11 1.8-6.5 1.1-36.6 4.5-61.3 7.2-2.9 27.3-6.8 54.4-9.7 81.7 32.2-4.9 60.3-9.4 80.5-12.8 1.2-11.8 2.2-23.6 3.3-35.4z"/><path class="d" d="m1171.6 909.1c-0.2 0-0.6 0-1.1 0 0.1 0 0.1 0 0.2 0.1 0.1-0.1 0.2-0.1 0.3-0.1q0.3 0 0.6 0z"/><path class="d" d="m1171.7 909.1q-0.1 0-0.1 0 0.1 0 0.1 0z"/><path class="d" d="m1177.5 919.5l0.9-0.3q0 0-0.9 0.2 0 0 0 0.1z"/><path class="d" d="m1185.9 955q0.4 0 0.4 0 0 0-0.4 0 0 0 0 0z"/><g style="opacity:.4;mix-blend-mode:multiply"><path class="e" d="m768.6 963.8c0 0 43.1-5.3 51-7.3 7.3-1.9 118.5-16.7 143.2-19.2q2.5-0.3 4-0.4c5.1-0.3 13.2-1 22.2-2 20-2.1 44.4-5.1 49.8-6 7.6-1.2 121.9-18.6 131.9-19.7-0.1-0.1-0.1-0.1-0.2-0.1-1.8 0.2-5.7 0.4-10.8 1-8.5 0.9-20.4 2.5-32.3 5.2-15.9 3.7-97.6 13.4-115.3 15.2-7 0.8-13.8 1.3-20.2 1.4-2 0-5 0.2-8.8 0.6-37.5 4-173.2 24.2-184.5 25.4-12.4 1.2-30 5.9-30 5.9z"/><path fill-rule="evenodd" class="e" d="m829.4 943.4c0 0 34.7-4.3 41-5.9 5.9-1.6 99.6-13.3 119.5-15.4 1.3-0.1 2.4-0.2 3.2-0.3 4.1-0.2 10.6-0.8 17.9-1.6 16-1.7 35.6-4.1 40-4.8 6.2-0.9 111.1-16.3 118.6-17 0.2-0.1 0.4-0.1 0.5-0.1-0.6 0.1-4.3 0.3-9.6 0.8-6.8 0.8-16.4 2-25.9 4.3-12.8 2.9-90.8 11.8-105.1 13.3-5.6 0.6-11.1 1-16.2 1.1-1.6 0-4 0.2-7.1 0.5-30.2 3.2-143.6 19.3-152.7 20.3-9.9 1-24.1 4.8-24.1 4.8zm340.8-45.1c0 0-0.1 0-0.1 0q0.1 0 0.1 0z"/><path class="e" d="m768.3 988.4c1.3-0.2 27.6-6.6 36.4-8.3 9.4-1.8 112.1-20.3 123.9-22.3 11.9-2 87.8-16.1 98.2-17.6 8.1-1.1 119.7-15.5 141.3-19.2-24.1 3.3-156.9 19.2-182.5 23.2-31.2 4.9-109.3 17.9-127 21.4-17.8 3.5-88.3 22.2-90.2 22.8q-0.1 0-0.1 0z"/><path class="e" d="m1034.6 991.3c-8.2-2-114.6 3.2-132 5.1-17.4 1.8-99.7 12.4-109.1 13.4-9.5 1.1-17.2 4.3-16.7 4.6 1.4-1.3 87.8-11.2 125.5-15.6 1.7-0.2 25-0.3 26.8-0.5 38.8-4.1 105.5-7 105.5-7z"/><path class="e" d="m770.2 1002.6c0 0 2.9-1.1 5.3-2.1 0 0 78-18.7 98.4-21.2 20.3-2.6 73.2-11.8 80.6-13.4 0.5-0.1 0.7-0.1 0.5-0.1-1.8 0.2-82.3 11.2-95.2 12.6-13.4 1.3-83.7 16.2-90.5 19.3 0.3 2.3 0.6 4.1 0.9 4.9z"/><path class="e" d="m1137.7 960.2c21.7-2.2 44.9-4.8 48.2-5.2q0 0 0 0c-5.8 0.4-137.3 11.9-144.4 12.6-7.5 0.8-78.1 7-78.1 7 0 0 42.5-16.9 49.8-19.7 7.2-2.8 122-20.7 128.9-22.2 6.9-1.5 35.6-10.6 35.6-10.6 0 0-24.1 5-38.3 8.4-14.3 3.6-107.2 13.6-131.3 23.8-24.1 10.1-56.6 22.4-56.6 22.4 0 0 70.7-5.5 93.1-7.4 7.5-0.7 81.5-7.8 93.1-9.1z"/><path fill-rule="evenodd" class="e" d="m1149.4 937.8c4.8-1.6 7-2.6 7-2.6 0 0-2.8 1-7 2.6zm33 7.9q0 0 0 0 0 0 0 0zm-42.4 2.1c-8.8 0.9-73.6 7.3-88.9 8.6-15.9 2.8-26.3 4.8-22.3 4.5 11.8-0.8 152.2-15 153.6-15.2-0.9 0-32.1 1-42.4 2.1zm-88.9 8.6c10.2-1.9 22.6-4 35-6.2-18.8 3.2-35.1 5.9-37.7 6.3-1.3 0.2-0.2 0.1 2.7-0.1zm98.3-18.6q-0.6 0.2-1.4 0.4 0.9-0.2 1.4-0.4zm-1.4 0.4c-5.3 1.6-18.2 4.2-33 6.9 13.8-2.5 24.5-4.5 27.2-5.2q3.4-0.9 5.8-1.7zm-61.9 12c9.5-1.6 19.6-3.4 28.9-5.1-8.8 1.5-18.8 3.3-28.9 5.1z"/></g><path class="p" d="m1134 606.3c-1.8-6.4 6.2-59 6.5-62.3 0.4-3.3-3.7-13.2-4.9-13.4-1.3-0.2-11.2 7.4-11.1 12.4 0.1 5.1-0.8 18.4-2.9 34.9-24.5 145.2-40.9 423.8-40.9 423.8l8.2-5.6 70.7-358.6-24-33.1c-0.4 3.3-0.8 4.7-1.6 1.9z"/><path class="b" d="m1143.5 540.6c-0.2 15.7-3.5 34.2-5.6 45.1-0.9 4.2-1.3 9.3-1.7 13.5-0.2 2-0.4 3.8-0.6 5.2l24 33.1 13.9-63.1q0.1-2.1 0.5-4.6c1.5-11-25.7-31.1-26.8-35.2-1.8-0.9-1.7 2.2-3.7 6z"/><path class="b" d="m1117.6 983.2q-0.2 1.8-0.3 3.5c0.5-4.6 0.9-8.5 0.3-3.5z"/><path class="b" d="m1177.5 564.2c-0.4 8.9-4.1 22.3-4.1 22.3 0 0-0.7-4.1 0.1-12.1l-84.6 421.7-8.2 5.6c0 0 31.8 1 32.8-0.7 1.7-3.1 2.1-3.3 2.8-6.5 0.3-1.3 0.7-4.7 1-7.8q0.1-1.7 0.3-3.5c0.6-5 0.2-1.1-0.3 3.5-0.5 6.6-0.2 11.8 0.4 13.3 0.8 1.8 14.6 0.7 14.6 0.7 0 0 2.9-2.5 4-9 1-6.6 1.2-6.9 0.5-0.3-0.7 6.7 0.5 6.8 1.4 7 5.4 0.9 11.1-4.2 11.8-8 0.8-3.8 7.8-111.1 11-145.4 5.5-41.8 21.2-211 25.1-246.2 3.9-35.3-4.6-54.3-4.6-54.3l-2.3 4.3c0 0-1.4 6.4-1.7 15.4z"/><path class="j" d="m1150.7 978.2c0.2-4.1 0.6-8.3 0.8-12.4 0.7-11.9 9.7-93.2 10.6-105q0.8-11.2 1.8-22.3c5.6-41.8 21.2-211 25.1-246.3 3.9-35.3 0.8-44.8 0.8-44.8l-8.6-3.1c0 0-0.5 4.4-0.8 13.4-0.3 8.9-4 22.3-4 22.3 0 0-1-5.8 0.5-16.7 1.6-11 2.6-17 1.4-21.1-7.7-5.2-28.3-8.7-31.9-8.1-0.1 15.6-3.4 34.2-5.6 45-0.8 4.3-1.3 9.4-1.7 13.6-0.6 6.6-1 11.1-2.1 7.1-1.9-6.4 6.1-59 6.5-62.3 0.4-3.3-6-6.6-7.2-6.8-1.3-0.2-3.7 1.6-3.6 6.7 0.1 5.1-0.7 18.4-2.9 34.9-24.5 145.2-40.9 423.8-40.9 423.8 0 0 2.3 0 5.7 0.1 0.3 0 0.7 0 1.1 0 1.8 0 3.7 0 5.8-0.1 2.8 0 5.6-0.1 8-0.2 2.3-0.2 4.2-0.4 5.5-0.7 0.8-0.2 1.4-0.4 1.4-0.7 0.2-2.2 2.8-22.6 3.5-25.8 0.6-3.3 1.6-0.3 0.7 8-0.9 8.2-0.7 15 0 16.8 0.5 1 4.9 1.6 8.6 2 2.8 0.2 5 0.3 5 0.3 0 0 2.3-1.9 3.3-8.5 1.1-6.5 2.9-9 2.2-2.4-0.7 6.6-0.3 6.5 0.5 7.4 0.6 0.6 1.6 0.4 2.5 0.4 0 0 7.1-0.7 7.4-2.7 0.2-2.1 0.6-11.8 0.6-11.8z"/><path class="d" d="m1136.8 991.3c0-0.2 0.1-0.6 0.2-1.2 0 0.1-0.1 0.2-0.1 0.2q0 0.2 0 0.3 0 0.4-0.1 0.7z"/><path class="d" d="m1136.8 991.4c0 0 0-0.1 0-0.1q0 0.1 0 0.1z"/><path class="d" d="m1127.6 995.3v1.1c0 0 0.1-0.4 0.1-1.1 0 0.1-0.1 0-0.1 0z"/><path class="d" d="m1098.7 996.2q0 0.4 0 0.4 0 0 0.1-0.4z"/><path class="e" d="m1176.5 541.3c0 0-4.7 48.1-4.7 57 0 8.5-11.3 132.5-14.3 159.9q-0.3 2.8-0.5 4.5c-0.8 5.6-1.9 14.5-3 24.5-2.4 22.2-5 49.3-5.5 55.4-0.6 8.6-10.5 136.6-11.6 147.7 0 0 0.1-0.1 0.1-0.2 0.2-2 0.8-6.2 1.4-11.9 1.1-9.4 2.3-22.7 2.6-36.3 0.3-18.1 9.5-108.9 11.7-128.7 0.8-7.7 1.8-15.2 3.1-22.1 0.3-2.2 0.8-5.6 1.2-9.7 4.6-41.7 16.6-193.6 18-206.1 1.5-13.8 1.5-34 1.5-34z"/><path fill-rule="evenodd" class="e" d="m1145.3 992.2q0 0.1 0 0.1c0 0 0 0 0-0.1zm34.5-380.2c0 0-3.7 38.7-3.7 45.9-0.1 6.8-10 111.2-12.5 133.2q-0.2 2.2-0.4 3.6c-0.6 4.5-1.5 11.7-2.4 19.8-1.9 17.8-4 39.6-4.4 44.5-0.2 2.7-1.8 22.1-3.7 45.3 2.8-28.4 6.1-60 7-68.9 0.7-6.3 1.5-12.3 2.5-17.9 0.3-1.8 0.6-4.4 1-7.8 3.7-33.5 14.3-160.3 15.4-170.3 1.2-11.1 1.2-27.4 1.2-27.4zm-34.4 379.6q0 0.2 0 0.3c0.1-1.1 0.7-4.9 1.2-10.3 0.9-7.3 1.8-17.4 2.1-27.9-1.7 19.5-3 35.1-3.3 37.9zm0 0.3q-0.1 0.2-0.1 0.3 0.1-0.1 0.1-0.3zm3.3-38.2c1.2-15.4 2.7-33.3 4-49.4-2.1 21.9-3.9 41.8-4 48.1q0 0.7 0 1.3z"/><path class="e" d="m1157.7 535.3c-0.1 1.5-0.5 31.5-1 41.4-0.5 10.6-7.2 126.3-8 139.7-0.8 13.3-5.5 99-6.4 110.6-0.8 9-12.4 133.5-13.9 157.8 2.3-27 17.1-174.8 19.2-203.5 2.6-34.9 8.4-122.7 9.3-142.8 0.9-20 0.9-100.9 0.8-103.1q0-0.1 0-0.1z"/><path class="e" d="m1101.6 823.6c3.1-8.4 20.7-125.2 22.8-144.5 2.2-19.3 10.6-111 11.8-121.5 1.1-10.5 0.2-19.6-0.1-19.1 0.7 1.8-9.2 97.8-13.5 139.8-0.2 1.8-4.8 27.2-5.1 29.2-4.7 43-15.9 116.1-15.9 116.1z"/><path class="e" d="m1146.4 534.1c0 0 0.3 3.4 0.6 6.2 0 0-1.5 89-3.7 111.7-2.2 22.6-5.8 82.2-6.1 90.5q0 0.9 0 0.7c0.2-2 8.1-91.9 9.7-106.4 1.6-14.8 4.5-94.5 3.5-102.6-1.8-0.2-3.3-0.2-4-0.1z"/><path class="e" d="m1104.4 942.7c-2.6 24.1-5.3 49.8-5.7 53.5h0.1c0.8-6.5 18.7-151.8 19.5-159.7 0.9-8.3 10.4-86.4 10.4-86.4 0 0 4.4 50.1 5.1 58.6 0.6 8.6-8.8 137.3-9.1 145.1-0.2 7.8 0.9 41.1 0.9 41.1 0 0 1.1-27.3 1.3-43.6 0.2-16.2 11.3-119.4 8.4-147.9-2.9-28.5-5.7-66.6-5.7-66.6 0 0-10.2 78-13.2 102.7-1 8.3-10.5 90.2-12 103.2z"/><path fill-rule="evenodd" class="e" d="m1126 824.3c0.6-4.4 0 7.4-1 25.4-2.2 17.2-10.4 88.6-11.4 98.3-1.3 11.6-7 46.5-7 46.5 0.1-1 17.6-157.1 19.4-170.2zm-0.5 22.4c-0.2 2.8-1.5 20.8-2.8 41.8 0.8-13.7 1.6-27.5 2.3-38.8 0.4-3.2 0.6-4.5 0.5-3zm-6.2 112.5q0 0.7 0 1.4 0-0.6 0-1.4zm-0.2-6.9c0-3 0.6-14.3 1.5-29-0.9 16.1-1.5 30-1.3 35.9q-0.2-3-0.2-6.9zm1.5-29c0.6-11.2 1.3-23.5 2.1-34.8-0.8 12.2-1.5 24.4-2.1 34.8zm-0.7 45.4c0 0-0.4-2.6-0.6-8.1 0.3 4.9 0.6 8.1 0.6 8.1z"/><path class="k" d="m1097.5 980.5c-1.5-11.5 21.7-294.5 26.7-331.3 5.1-36.7 7.5-60.6 9.6-38.4 2.1 22.1 10.1-40.8 13.5-64.5 0.8-5.8 1.7-9.7 2.4-12.2-1.5-0.1-2.7-0.1-3.3 0-0.1 15.6-3.4 34.2-5.6 45-0.8 4.3-1.3 9.4-1.7 13.6-0.6 6.6-1 11.1-2.1 7.1-1.9-6.4 6.1-59 6.5-62.3 0.4-3.3-6-6.6-7.2-6.8-1.3-0.2-3.7 1.6-3.6 6.7 0.1 5.1-0.7 18.4-2.9 34.9-24.5 145.2-40.9 423.8-40.9 423.8 0 0 2.3 0 5.7 0.1 0.3 0 0.7 0 1.1 0 1.8 0 3.7 0 5.8-0.1q0.3 0 0.6 0c-3.7-3-3.6-7.2-4.6-15.6z"/><path class="l" d="m1174.2 554.5c-1 23.1-8.3 102.8-2.5 78.5 5.7-24.3-1.1 66.3-6.9 121-5.9 54.7-21.5 189.7-20.9 167.4 0.6-22.2-0.9-7.2-4.8 21.2-3.9 28.4-7.5 41.1-10.4 49.3-0.4 1.3-0.7 2.4-1 3.4 0.5 0.1 1 0.1 1.5 0.2 2.8 0.2 5 0.3 5 0.3 0 0 2.3-1.9 3.3-8.5 1.1-6.5 2.9-9 2.2-2.4-0.7 6.6-0.3 6.5 0.5 7.4 0.6 0.6 1.6 0.4 2.5 0.4 0 0 7.1-0.7 7.4-2.7 0.2-2.1 0.6-11.8 0.6-11.8 0.2-4.1 0.6-8.3 0.8-12.4 0.7-11.9 9.7-93.2 10.6-105q0.8-11.2 1.8-22.3c5.6-41.8 21.2-211 25.1-246.3 3.9-35.3 0.8-44.8 0.8-44.8l-8.6-3.1c0 0-0.5 4.4-0.8 13.4-0.3 8.9-4 22.3-4 22.3 0 0-1-5.8 0.5-16.7 1.6-11 2.6-17 1.4-21.1-2-1.4-4.9-2.6-8.1-3.7 2.5 3.3 4.4 8.2 4 16z"/><path class="f" d="m1119.4 644.7c4.9-0.9 9.8-2.4 14.6-4.2 3.7-1.3 17.4-3.1 18.3-8.3 0.2-1 1.2-1.8 2.1-1.5 7.1 2.7 15.9 0.6 22.7-2.8 3.7-1.8 6.6-3.9 8.9-6.6 1.3-12.8 2.3-23 3-29.1 3.9-35.3 0.8-44.8 0.8-44.8l-8.6-3.1c0 0-0.5 4.4-0.8 13.4-0.3 8.9-4 22.3-4 22.3 0 0-1-5.8 0.5-16.7 1.6-11 2.6-17 1.4-21.1-7.7-5.2-28.3-8.7-31.9-8.1-0.1 15.6-3.4 34.2-5.6 45-0.8 4.3-1.3 9.4-1.7 13.6-0.6 6.6-1 11.1-2.1 7.1-1.9-6.4 6.1-59 6.5-62.3 0.4-3.3-6-6.6-7.2-6.8-1.3-0.2-3.7 1.6-3.6 6.7 0.1 5.1-0.7 18.4-2.9 34.9-3.6 21.6-7.1 46.2-10.4 72.4z"/><path class="q" d="m848 117.3c5.2 2.7 49.9-1.8 52.7-1.9 2.8-0.1 10.6 5.6 10.6 7.1 0 1.5-7.6 12.5-11.8 11.9-4.2-0.6-15.4-0.8-29.4 0.1-123.8 15.3-357.6 8.6-357.6 8.6l5.7-9.1 307.2-49.8 24.5 31.3c-2.9 0.2-4 0.6-1.9 1.8z"/><path class="b" d="m904 112.3c-13.1-1.3-28.9 0.8-38.3 2.4-3.6 0.5-7.9 0.6-11.4 0.7-1.7 0.1-3.2 0.1-4.4 0.1l-24.5-31.3 54.2-10.3c1.2-0.1 2.5-0.1 3.9-0.2 9.4-0.8 22.6 33.1 25.9 34.8 0.5 2.2-2.1 1.7-5.4 3.8z"/><path class="b" d="m532.6 101.4c-1 0-2 0-3 0 3.9-0.1 7.2-0.2 3 0z"/><path class="b" d="m888.7 70.1c-7.5-0.4-19.2 2.7-19.2 2.7 0 0 3.4 1.2 10.1 1.1l-361.4 60.1-5.7 9.1c0 0 3.2-37.5 4.7-38.4 2.9-1.8 3-2.3 5.8-2.8 1.1-0.2 4-0.3 6.6-0.5 1 0 2 0 3 0 4.2-0.2 0.9-0.1-3 0-5.5 0-9.8-0.7-11-1.7-1.4-1 1.3-17.2 1.3-17.2 0 0 2.4-3.2 8-3.8 5.6-0.6 5.9-0.8 0.3-0.6-5.6 0.2-5.7-1.2-5.7-2.4 0-6.3 4.9-12.6 8.2-13.1 3.3-0.5 93.4 1.2 122.3 0.7 35.4-2.6 178.2-5.3 208-6.5 29.8-1.3 44.5 10.3 44.5 10.3l-3.8 2.4c0 0-5.6 1-13 0.6z"/><path class="r" d="m540.9 63c3.5 0.1 7 0.1 10.4 0.2 10 0.3 78.8-2.7 88.7-2.6q9.4 0 18.8-0.1c35.4-2.7 178.2-5.3 208-6.6 29.8-1.3 37.3 3.2 37.3 3.2l1.5 10.4c0 0-3.7 0.2-11.2-0.3-7.4-0.4-19.1 2.7-19.1 2.7 0 0 4.7 1.7 14 0.9 9.3-0.8 14.5-1.3 17.8 0.4 3.3 9.5 3.6 34.1 2.7 38.2-13.1-1.3-28.9 0.9-38.2 2.4-3.7 0.6-8 0.7-11.5 0.8-5.6 0.1-9.4 0.1-6.2 1.8 5.1 2.8 49.8-1.7 52.6-1.9 2.8-0.1 4.8 7.6 4.8 9.2 0 1.4-1.9 4.1-6.1 3.5-4.2-0.5-15.3-0.8-29.3 0.2-123.9 15.3-357.7 8.6-357.7 8.6 0 0 0.3-2.8 0.7-6.7q0-0.6 0.1-1.3c0.2-2.1 0.5-4.4 0.8-6.8 0.4-3.3 0.8-6.6 1.2-9.4 0.4-2.7 0.8-5 1.2-6.4 0.3-1 0.6-1.6 0.8-1.6 1.9-0.1 19.1-1.2 21.9-1.7 2.8-0.5 0.5-1.9-6.5-1.6-7 0.3-12.6-0.5-14-1.6-0.8-0.6-0.8-5.9-0.6-10.2 0.2-3.3 0.4-5.9 0.4-5.9 0 0 1.9-2.6 7.5-3.2 5.6-0.6 7.9-2.6 2.3-2.4-5.6 0.3-5.5-0.2-6.1-1.2-0.5-0.7-0.1-1.9 0-2.9 0 0 1.4-8.4 3.2-8.5 1.7 0 9.8 0.4 9.8 0.4z"/><path class="d" d="m528.3 78.1c0.1 0 0.5 0 1-0.1-0.1 0-0.2 0-0.2 0.1-0.1 0-0.2-0.1-0.2 0-0.2 0-0.5 0-0.6 0z"/><path class="d" d="m528.2 78.1q0 0 0.1 0c-0.1 0-0.1 0-0.1 0z"/><path class="d" d="m523.8 88.5l-0.9-0.1c0 0 0.3 0 0.9 0 0 0 0 0.1 0 0.1z"/><path class="d" d="m519.4 122.4q-0.4 0.1-0.4 0 0 0.1 0.4 0 0 0 0 0z"/><g style="opacity:.4;mix-blend-mode:multiply"><path class="e" d="m907.5 73.4c0 0-40.5 1-48 0.2-7-0.8-111.6 0.9-134.8 1.9-1.5 0-2.8 0.1-3.7 0.2-4.8 0.4-12.4 0.9-20.8 1.2-18.8 0.8-41.7 1.3-46.8 1.3-7.2 0-114.9-0.5-124.3-0.1 0-0.1 0.1-0.1 0.2-0.1 1.7-0.1 5.3-0.4 10.1-0.6 8-0.3 19.2-0.5 30.5 0.4 15.1 1.3 91.8-1.1 108.5-1.8 6.5-0.2 12.9-0.7 18.8-1.5 1.9-0.3 4.7-0.5 8.2-0.6 35.3-1.5 163.1-1.5 173.7-1.9 11.6-0.5 28.4 1.4 28.4 1.4z"/><path class="e" d="m528.5 68q0 0 0.1 0c0 0 0 0-0.1 0zm320.7-5.2c0 0-13.6-1.4-22.9-1.1-8.6 0.4-115.3 1.1-143.7 2.3-2.8 0.1-5.1 0.2-6.6 0.4-4.8 0.6-9.9 1.1-15.1 1.3-13.4 0.5-86.7 3-98.8 2-9.1-0.7-18.1-0.6-24.5-0.3-5 0.2-8.4 0.5-9 0.6q0.2 0 0.5 0c7-0.3 105.8-0.6 111.7-0.6 4.1 0 22.5-0.4 37.6-1 6.8-0.3 12.9-0.7 16.7-1 0.8-0.1 1.8-0.1 3-0.2 18.7-0.8 106.8-2.8 112.4-2.2 6 0.6 38.7-0.2 38.7-0.2z"/><path class="e" d="m910.1 96c-1.2 0-26.2-2.3-34.5-2.6-8.9-0.4-106-3.4-117.2-3.6-11.2-0.3-83-2.9-92.8-2.8-7.6 0-112.6 2.1-133 1.6 22.8-0.2 147.5-3.8 171.7-3.6 29.4 0.2 103.1 1.6 119.9 2.4 16.8 0.7 84 8.3 85.9 8.6q0 0 0 0z"/><path class="e" d="m663.3 135.2c7.4-3 106.7-12.8 123-13.5 16.3-0.6 93.7-2.1 102.6-2.5 8.8-0.3 16.3 1.6 15.9 2-1.4-1.1-82.5 1.6-118 2.8-1.5 0-23.2 3.1-24.9 3.2-36.4 1.5-98.6 8-98.6 8z"/><path class="e" d="m909.8 109.4c0 0-2.9-0.6-5.2-1.3 0 0-74.2-6.5-93.3-6.1-19.1 0.5-69.1-0.8-76.1-1.2-0.5 0-0.6 0-0.5-0.1 1.7 0 77.5-0.9 89.6-1.4 12.6-0.6 79.3 3.5 85.8 5.4 0 2.2-0.2 3.9-0.3 4.7z"/><path class="e" d="m564.6 120.7c-20.3 0.8-42.1 1.6-45.2 1.7q0 0 0 0c5.5-0.4 128.6-7.8 135.3-8.1 7-0.3 73.1-4.3 73.1-4.3 0 0-41.1-9.7-48.1-11.3-7-1.6-115.2-2.4-121.8-2.8-6.5-0.5-34-4.9-34-4.9 0 0 22.8 1.2 36.4 2.5 13.5 1.3 100.7-2.2 124 3.9 23.4 6.1 54.7 12.9 54.7 12.9 0 0-66.1 4.7-87.1 6-7 0.4-76.3 3.9-87.3 4.4z"/><path class="e" d="m551.6 101.5c-4-0.8-6.7-1.4-6.7-1.4 0 0 2.1 0.7 6.7 1.4zm-29.8 11.9c0.9-0.1 132.9-6.2 144-7 11.2-0.9-98-2.8-107.3-3.9q-4.1-0.5-6.9-1c10.7 2.3 89.8 3.4 95.5 3.4 7.9 0.1-76 4.2-85.7 4.6-9.8 0.4-39.7 3.9-39.7 3.9z"/></g><path class="f" d="m906.5 112.5c-1.4 0.1-14.1 1.3-26.7 2.1 1.7 1.9 2.2 4.3 6 4.2 8.6-0.2 16.9-0.2 25.1 0.8-0.6-2.8-2.3-7.2-4.4-7.1z"/><path class="f" d="m854.6 67c-1 5-5.9 16.1-1.4 18.9 0.7 0.4 0.8 1.4 0.5 2.2-2.1 4.1-6.3 8.9-2.3 13.2 0.9 1 1.9 2 1.8 3.8 0 2-1.9 4.5-3.5 6.5 7.3 0.9 14.5-1.4 21.7-0.2 0.5 0.1 0.9 0.1 1.3 0.2 9.4-1.5 24.5-3.4 37.1-2.2 0.9-4.1 0.6-28.7-2.7-38.2-3.3-1.7-8.5-1.2-17.8-0.4-9.3 0.8-14-0.9-14-0.9 0 0 11.7-3.1 19.1-2.6 7.5 0.4 11.2 0.2 11.2 0.2l-1.5-10.4c0 0-7.5-4.5-37.3-3.2-2.6 0.1-5.9 0.2-10 0.3-0.7 4.3-1.4 8.6-2.2 12.8z"/><path class="f" d="m574.3 123.8c-0.1-7-2.1-13.4-4.1-20-0.9-2.8-0.9-3.4-0.3-6.5 0.4-2.5 0.4-5.1 0.2-7.8-0.7 0.6-1.7 0.7-2-0.5q-2.8-11.2-5.6-22.4-0.1-0.5 0-0.9-0.4-1.3-0.8-2.6c-4.9 0.1-8.6 0.2-10.4 0.1-3.4-0.1-6.9-0.1-10.4-0.2 0 0-8.1-0.4-9.8-0.4-1.8 0.1-3.2 8.5-3.2 8.5-0.1 1-0.5 2.2 0 2.9 0.6 1 0.5 1.5 6.1 1.2 5.6-0.2 3.3 1.8-2.3 2.4-5.6 0.6-7.5 3.2-7.5 3.2 0 0-0.2 2.6-0.4 5.9-0.2 4.3-0.2 9.6 0.6 10.2 1.4 1.1 7 1.9 14 1.6 7-0.3 9.3 1.1 6.5 1.6-2.8 0.5-20 1.6-21.9 1.7-0.2 0-0.5 0.6-0.8 1.6-0.4 1.4-0.8 3.7-1.2 6.4-0.4 2.8-0.8 6.1-1.2 9.4-0.3 2.4-0.6 4.7-0.8 6.8q-0.1 0.7-0.1 1.3c-0.3 2.9-0.5 5.1-0.6 6.2 18.3-5.9 37-10.2 56-9.7z"/><path class="s" d="m907.9 92.6c-4.8 2.6-42.6-7.2-45-7.6-2.4-0.4-9.8 5.3-10 6.9-0.2 1.7 4.9 14.9 8.6 14.7 3.7-0.2 13.3 0.7 25.2 3.2 104.4 30.2 306.2 46.9 306.2 46.9l-3.8-11-257.4-88.2-25.1 33c2.4 0.4 3.4 1 1.3 2.1z"/><path class="b" d="m860.5 81.1c11.4-0.1 24.8 4 32.6 6.7 3 1 6.7 1.6 9.7 2.1 1.5 0.2 2.8 0.4 3.8 0.6l25.1-33-45.2-17.3c-1.1-0.2-2.2-0.4-3.4-0.7-7.9-1.8-23.7 35.2-26.7 36.8-0.8 2.4 1.5 2.2 4.1 4.8z"/><path class="b" d="m1181 107.3q1.3 0.2 2.6 0.4c-3.3-0.6-6.2-1.1-2.6-0.4z"/><path class="b" d="m879.2 35c6.5 0.3 16 5 16 5 0 0-3 1-8.7 0.2l302.6 105.5 3.8 11c0 0 2.1-42.9 0.9-44.1-2.2-2.3-2.3-2.8-4.6-3.7-1-0.3-3.4-0.8-5.6-1.2q-1.3-0.2-2.6-0.4c-3.6-0.7-0.7-0.2 2.6 0.4 4.8 0.5 8.5 0.1 9.7-0.8 1.3-1.1 1.1-19.7 1.1-19.7 0 0-1.6-3.9-6.4-5.1-4.7-1.3-4.9-1.6-0.1-0.7 4.7 0.8 5-0.8 5.1-2.1 0.9-7.2-2.6-14.8-5.3-15.7-2.7-0.9-80.4-8.3-105.2-11.9-30.1-6.6-152.3-24.5-177.8-29-25.5-4.5-39.6 7.2-39.6 7.2l3 3.1c0 0 4.6 1.7 11.1 2z"/><path class="j" d="m1178.9 63c-3-0.2-6-0.7-9-0.9-8.6-0.7-67.3-11.2-75.9-12.2q-8-0.9-16.1-2c-30.1-6.7-152.4-24.5-177.8-29-25.5-4.5-32.5-0.2-32.5-0.2l-2.6 11.6c0 0 3.1 0.6 9.6 0.8 6.5 0.3 16.1 5 16.1 5 0 0-4.3 1.4-12.2-0.4-7.9-1.8-12.2-3-15.3-1.4-4.1 10.4-7.5 38.2-7.3 43 11.4-0.1 24.7 4 32.6 6.7 3 1 6.7 1.6 9.7 2 4.8 0.7 8 1.2 5.1 2.7-4.8 2.7-42.6-7.1-45-7.5-2.4-0.4-5.1 8.1-5.3 9.8-0.2 1.7 1.1 4.9 4.7 4.7 3.7-0.2 13.4 0.7 25.3 3.2 104.4 30.2 306.1 46.8 306.1 46.8 0 0 0.2-3.1 0.3-7.6 0.1-0.6 0.1-1 0.1-1.6 0.1-2.4 0.2-5 0.2-7.7 0.1-3.8 0.2-7.5 0.2-10.8 0-3.1-0.1-5.7-0.2-7.3-0.1-1.2-0.3-1.9-0.5-2-1.6-0.2-16.3-3.3-18.6-4.1-2.3-0.9-0.1-2.2 5.8-1.1 6 1 10.9 0.6 12.3-0.5 0.7-0.6 1.4-6.5 1.8-11.5 0.2-3.8 0.4-6.7 0.4-6.7 0 0-1.2-3.1-6-4.4-4.7-1.2-6.4-3.7-1.7-2.8 4.8 0.8 4.8 0.2 5.4-0.8 0.5-0.8 0.4-2.2 0.5-3.4 0 0-0.2-9.6-1.7-9.9-1.5-0.2-8.5-0.5-8.5-0.5z"/><path class="d" d="m1187.8 81.4q-0.2-0.1-0.9-0.2c0.1 0 0.1 0 0.1 0 0.2 0 0.2 0 0.3 0.1q0.3 0 0.5 0.1z"/><path class="d" d="m1187.9 81.4c0 0-0.1 0-0.1 0 0 0 0.1 0 0.1 0z"/><path class="d" d="m1190.3 93.6h0.7q0 0-0.7-0.1 0 0.1 0 0.1z"/><path class="d" d="m1189.6 132.5q0.4 0.1 0.3 0.1 0.1 0-0.3-0.1 0 0 0 0z"/><path class="e" d="m862.5 36.7c0 0 34.8 5.3 41.3 5.2 6.1-0.1 95.7 12.6 115.5 16.2q2 0.3 3.2 0.6c4.1 1 10.5 2.2 17.7 3.5 16 2.8 35.6 5.8 40.1 6.3 6.1 0.7 98.7 11.4 106.8 12.7 0 0-0.1 0-0.2 0-1.4-0.4-4.5-1.1-8.6-1.8-6.8-1.2-16.4-2.5-26.2-2.7-13.2-0.1-78.8-10.7-93-13.2-5.6-1-11-2.2-16-3.7-1.6-0.5-4-1-7-1.6-30.1-5.3-139.9-18.5-148.9-20.1-10-1.8-24.7-1.4-24.7-1.4z"/><path class="e" d="m1188.9 69.9c0 0-0.1 0-0.1 0 0.1 0 0.1 0 0.1 0zm-274.8-39.1c0 0 27.9 4.3 33.2 4.2 4.9-0.1 80.3 11.3 96.2 14.1 1 0.2 1.9 0.4 2.6 0.6 3.2 0.8 8.4 1.8 14.2 2.8 12.9 2.3 28.7 4.7 32.2 5.1 5 0.5 89.9 11.1 95.9 12.2q0.2 0 0.4 0.1c-0.5-0.2-3.4-0.8-7.6-1.6-5.5-1-13.2-2-21.1-2.2-10.6-0.1-73.2-10.5-84.6-12.6-4.5-0.8-8.9-1.7-12.9-2.9-1.3-0.4-3.2-0.8-5.6-1.3-24.2-4.3-115.8-16-123.1-17.3-8-1.5-19.8-1.2-19.8-1.2z"/><path class="e" d="m857.4 62.1c1 0.1 22.8 0.1 30 0.6 7.7 0.5 91.5 7.2 101.1 8 9.7 0.9 71.7 5.4 80.1 6.5 6.5 0.9 96.5 14 114.1 15.6-19.6-2.6-126.3-19.6-147.1-21.9-25.2-2.8-88.8-8.8-103.3-9.7-14.5-0.9-73.3 0.7-74.9 0.9q0 0 0 0z"/><path class="e" d="m1064.4 132c-6-4.1-90.1-25.5-104-27.9-13.9-2.5-80.2-12.2-87.8-13.5-7.6-1.3-14.2 0.1-13.9 0.6 1.4-1.1 70.7 10.4 101 15.3 1.3 0.2 19.5 6 21 6.3 31 5.5 83.7 19.2 83.7 19.2z"/><path class="e" d="m855.9 77.3c0 0 2.5-0.4 4.6-0.9 0 0 64.6 0.3 81 2.8 16.4 2.5 59.5 6.2 65.5 6.4q0.6 0 0.5 0c-1.5-0.2-66.5-9.1-76.8-10.9-10.7-1.9-68.6-4.3-74.5-2.8-0.2 2.5-0.3 4.4-0.3 5.4z"/><path class="e" d="m1151 125.8c17.4 3.1 36 6.2 38.6 6.7q0 0 0 0c-4.6-1-109.4-22.2-115.1-23.3-6-1-62.3-12.3-62.3-12.3 0 0 36.6-6.9 42.8-7.9 6.2-1.1 99.3 9.2 105 9.4 5.6 0.1 29.9-2 29.9-2 0 0-19.8-1-31.6-0.9-11.8 0.1-86.3-12.9-107.1-8.5-20.9 4.5-48.7 9-48.7 9 0 0 56.2 12.2 74.1 15.8 5.9 1.2 65 12.3 74.4 14z"/><path fill-rule="evenodd" class="e" d="m1065.9 99.1c-3.1-0.7 5.3-0.1 18.3 0.9 12 2.5 64 12.2 71.1 13.5 8.3 1.4 33.5 8.5 33.5 8.5-0.8-0.1-113.4-20.8-122.9-22.9zm16.3 0.3c2 0.3 14.7 1.6 29.6 2.9-9.8-0.8-19.6-1.6-27.6-2.3-2.3-0.5-3.1-0.7-2-0.6zm81 6.2q0.8 0 1.5-0.1-0.6 0.1-1.5 0.1zm-4.6 0.3c-2.2 0.1-10.6-0.6-21.6-1.4 11.5 0.8 21.6 1.4 26.2 1.1q-2 0.2-4.6 0.3zm-21.6-1.4c-8.2-0.7-17-1.4-25.2-2.2 8.8 0.8 17.6 1.5 25.2 2.2zm33.6 0.1c0 0-1.9 0.5-5.9 0.9 3.5-0.5 5.9-0.9 5.9-0.9z"/><path class="k" d="m1178.2 134.5c-8.5 2.2-213.1-23.5-239.5-29.6-26.6-6-43.8-8.8-27.6-12.1 16.2-3.2-29.2-12.8-46.3-16.9-4.1-1-6.9-2-8.7-2.9-0.1 2-0.2 3.5-0.2 4.3 11.4-0.1 24.7 4 32.6 6.7 3 1 6.7 1.6 9.7 2 4.8 0.7 8 1.2 5.1 2.7-4.8 2.7-42.6-7.1-45-7.5-2.4-0.4-5.1 8.1-5.3 9.8-0.2 1.7 1.1 4.9 4.7 4.7 3.7-0.2 13.4 0.7 25.3 3.2 104.4 30.2 306.1 46.8 306.1 46.8 0 0 0.2-3.1 0.3-7.6 0.1-0.6 0.1-1 0.1-1.6 0.1-2.4 0.2-5 0.2-7.7 0-0.3 0-0.6 0-0.9-2.3 5.1-5.4 5-11.5 6.6z"/><path class="l" d="m872 39.5c16.8 0.9 74.4 9.3 57 2-17.5-7.4 48.1 0 87.6 6.8 39.5 6.8 136.9 25.2 120.7 24.9-16.1-0.3-5.3 1.4 15.2 6.1 20.4 4.6 29.5 9.3 35.3 12.9 1 0.6 1.8 1 2.5 1.4 0.1-0.7 0.1-1.4 0.2-2.1 0.3-3.8 0.4-6.7 0.4-6.7 0 0-1.2-3.1-6-4.4-4.7-1.2-6.4-3.7-1.6-2.8 4.7 0.8 4.7 0.2 5.3-0.8 0.5-0.8 0.4-2.2 0.5-3.4 0 0-0.2-9.6-1.7-9.9-1.5-0.2-8.5-0.5-8.5-0.5-3-0.2-6-0.7-9-0.9-8.6-0.7-67.3-11.2-75.9-12.2q-8-0.9-16.1-2c-30.1-6.7-152.4-24.5-177.8-29-25.5-4.5-32.5-0.2-32.5-0.2l-2.6 11.6c0 0 3.1 0.6 9.6 0.8 6.5 0.3 16.1 5 16.1 5 0 0-4.3 1.4-12.2-0.4-7.9-1.8-12.2-3-15.3-1.4-1 2.7-2.1 6.6-3 11 2.5-3.5 6.2-6.1 11.8-5.8z"/><path class="f" d="m1175.6 103.3c-1.7-3.6-4.4-6.2-8.9-6.6-9.2-0.9-18.2 1.7-27.3 3.3-2.2 0.5-7.4 2.4-9.7 1.1-0.5-0.3-1.4-0.6-1.9-1.3-2-3.4-3-1.2-5.2-0.3-3 1.3-7.5-1.8-11-0.7-4.1 1.1-8.4 2.5-12.1 4.9-7.3 4.7-3.6 21.1-1.4 32.7 38.7 4.6 69.9 7.5 83.5 8.7-0.4-10-1-19.9-2.7-29.7-0.6-3.2-1.2-6.4-2.2-9.3-2.8-0.6-5.3-1.2-6.1-1.5-2.2-0.8-0.3-2 5-1.3z"/><path class="t" d="m190.2 120c-4.8 2.8-46.8 1.5-49.4 1.6-2.6 0.1-9.7 5.7-9.7 7.1 0 1.3 7.4 10.7 11.3 10 4-0.8 14.4-1.7 27.6-1.7 116.4 5.9 399.2-14.5 399.2-14.5l-5.6-7.9-353.1-25.9-22 29.8c2.6 0 3.7 0.3 1.7 1.5z"/><path class="b" d="m137.7 119c12.2-2 27.1-1.1 35.8-0.3 3.5 0.3 7.5 0.1 10.8 0 1.6-0.1 3-0.2 4.2-0.2l22-29.8-51-5.9q-1.8 0.1-3.8 0.1c-8.7-0.1-20.2 31.2-23.2 33-0.5 2 2 1.5 5.2 3.1z"/><path class="b" d="m549.2 86.1q1.4-0.1 2.8-0.2c-3.7 0.1-6.7 0.3-2.8 0.2z"/><path class="b" d="m150.9 80c7-0.9 17.9 1.2 17.9 1.2 0 0-3.1 1.3-9.3 1.6l404.1 31.8 5.6 7.9c0 0-4.1-33.7-5.5-34.4-2.7-1.4-2.9-1.9-5.5-2.1-1.1-0.1-3.8-0.1-6.2-0.1q-1.4 0.1-2.8 0.2c-3.9 0.1-0.9-0.1 2.8-0.2 5.2-0.3 9.2-1.3 10.3-2.2 1.3-1-1.7-15.5-1.7-15.5 0 0-2.4-2.7-7.6-2.9-5.3-0.2-5.6-0.4-0.3-0.5 5.2-0.2 5.2-1.5 5.2-2.5-0.1-5.7-4.9-11.1-8-11.3-3.1-0.3-87.5 7-114.6 8.4-33.2-0.1-230.9 6-258.9 6.7-28 0.8-41.4 12.3-41.4 12.3l3.6 1.9c0 0 5.3 0.5 12.3-0.3z"/><path class="j" d="m540.3 52c-3.2 0.3-6.5 0.5-9.7 0.8-9.4 0.9-73.8 2.5-83.2 3.3q-8.8 0.6-17.6 1.1c-33.2-0.2-230.9 6-258.9 6.8-28 0.7-34.9 5.3-34.9 5.3l-1.1 9.4c0 0 3.5-0.1 10.5-0.9 6.9-0.9 17.9 1.2 17.9 1.2 0 0-4.3 1.8-13.1 1.6-8.7 0-13.5-0.3-16.6 1.5-2.8 8.8-2.4 31-1.5 34.7 12.3-2 27.2-1.1 35.9-0.3 3.5 0.3 7.5 0.1 10.8 0 5.2-0.3 8.8-0.5 5.9 1.2-4.8 2.8-46.8 1.6-49.4 1.7-2.6 0.1-4.3 7.2-4.2 8.5 0 1.4 1.8 3.7 5.7 2.9 3.9-0.8 14.4-1.7 27.6-1.7 116.4 5.9 399.2-14.5 399.2-14.5 0 0-0.4-2.5-0.8-6q-0.1-0.6-0.2-1.2c-0.3-1.9-0.6-3.9-0.9-6.1-0.5-2.9-1-5.8-1.4-8.4-0.5-2.4-0.9-4.4-1.3-5.6-0.3-0.9-0.6-1.5-0.8-1.4-1.8 0-18 0.1-20.6-0.2-2.6-0.2-0.5-1.7 6.1-1.8 6.5-0.2 11.8-1.3 13.1-2.4 0.7-0.6 0.5-5.3 0.2-9.3-0.2-3-0.5-5.2-0.5-5.2 0 0-1.8-2.3-7.1-2.5-5.3-0.2-7.5-1.8-2.2-1.9 5.2-0.2 5.1-0.6 5.7-1.5 0.4-0.7 0-1.8-0.1-2.7 0 0-1.6-7.4-3.2-7.4-1.7 0-9.3 1-9.3 1z"/><path class="d" d="m552.6 64.8q-0.2 0-0.9 0c0 0 0.1 0 0.1 0q0.1 0 0.3 0 0.3 0 0.5 0z"/><path class="d" d="m552.7 64.8q-0.1 0-0.1 0 0.1 0 0.1 0z"/><path class="d" d="m557.1 73.9l0.8-0.2q0 0-0.8 0.1 0 0.1 0 0.1z"/><path class="d" d="m562.1 104.2q0.3 0 0.4 0-0.1 0-0.4 0 0 0 0 0z"/><path class="e" d="m133.2 84.1c0 0 38.1-1.7 45-2.8 6.6-1.2 168.6-5.8 190.3-6.4 1.4 0 2.6 0 3.5 0 4.5 0.1 11.6 0 19.5-0.3 17.6-0.4 39.1-1.4 43.9-1.8 6.7-0.5 107.6-7.7 116.4-8 0 0-0.1 0-0.1 0-1.6 0-5.1 0-9.6 0.1-7.4 0.2-17.9 0.7-28.5 2.3-14.1 2.1-86 4.8-101.7 5.3-6.1 0.1-12.1 0.1-17.6-0.2-1.8-0.2-4.5-0.1-7.8-0.1-33 0.9-216.7 8.6-226.6 8.9-11 0.3-26.7 3-26.7 3z"/><path fill-rule="evenodd" class="e" d="m552 55.7q0 0 0.1 0 0 0-0.1 0zm-364.4 15.2c0 0 30.6-1.4 36.3-2.3 5.2-0.9 151.8-4.2 169.2-4.7 1.2 0 2.1 0 2.8 0 3.6 0.1 9.4 0 15.7-0.2 14.2-0.3 31.5-1.1 35.3-1.4 2.1-0.2 17.5-1.2 35.8-2.4-22.5 1-47.5 1.9-54.7 2.1-4.9 0.1-9.7 0.1-14.2-0.2-1.4-0.1-3.5 0-6.2 0-26.6 0.7-190.5 6.4-198.5 6.7-8.8 0.2-21.5 2.4-21.5 2.4zm364-15.2q0.1 0 0.2 0c-0.8 0-3.9-0.1-8.2 0-5.9 0.2-14 0.6-22.3 1.8 15.6-1 28-1.8 30.3-1.8zm0.2 0q0.1 0 0.2 0-0.1 0-0.2 0zm-30.5 1.8c-12.1 0.7-26.1 1.6-38.6 2.4 17.2-0.7 33-1.6 37.9-2.3q0.4-0.1 0.7-0.1z"/><path class="e" d="m131.4 104.7c1.2-0.1 24.5-3.7 32.4-4.6 8.2-0.9 163.1-9.2 173.6-10.2 10.4-0.9 77.6-7.8 86.8-8.3 7.1-0.5 105.5-5.3 124.6-7.1-21.3 1.3-138.3 6-160.9 7.7-27.5 2.1-160.5 7.5-176.2 9.2-15.7 1.8-78.5 12.9-80.2 13.3q-0.1 0-0.1 0z"/><path class="e" d="m427.7 124.8c-7-2.1-164.3-5.1-179.6-4.7-15.3 0.4-87.8 4-96.1 4.2-8.3 0.3-15.3 2.5-14.8 2.8 1.3-1.1 77.3-3.8 110.5-5 1.5-0.1 85.8 1.9 87.4 1.9 34.1-1 92.6 0.8 92.6 0.8z"/><path class="e" d="m132.1 116.8c0 0 2.7-0.7 4.8-1.5 0 0 69.4-10.6 87.3-11.4 17.9-0.8 128.6-4.6 135.2-5.5q0.6-0.1 0.4-0.1c-1.5 0.1-136.5 3.6-147.9 3.9-11.8 0.3-74.1 8.2-80.2 10.3 0.1 2 0.3 3.6 0.4 4.3z"/><path class="e" d="m519.7 105.5c19.1-0.5 39.5-1.2 42.4-1.3q0 0 0 0c-5.1 0-120.6 1.1-126.9 1.3-6.6 0.2-68.7 0.8-68.7 0.8 0 0 38.3-11.4 44.8-13.3 6.5-1.9 107.9-9.5 114-10.3 6.1-0.9 31.8-6.6 31.8-6.6 0 0-21.4 2.6-34 4.6-12.7 2.1-94.4 4.4-116.2 11.4-21.7 7-50.8 15.2-50.8 15.2 0 0 62 0 81.7-0.2 6.6-0.1 71.6-1.3 81.9-1.6z"/><path fill-rule="evenodd" class="e" d="m531.4 87.4c4.2-0.9 6.2-1.7 6.2-1.7 0 0-2.5 0.7-6.2 1.7zm28.3 8.8c0 0-28.1-1.2-37.2-1-7.8 0.2-65.1 1.4-78.3 1.5-14 1.3-23.2 2.3-19.6 2.3 10.4 0.1 134.2-2.8 135.1-2.8zm-115.5 0.5c8-0.8 17.7-1.7 27.5-2.6-15.1 1.3-27.6 2.3-29.7 2.5-1.2 0.1-0.2 0.1 2.2 0.1zm87.2-9.3q-0.6 0.2-1.3 0.3 0.8-0.1 1.3-0.3zm-1.3 0.3c-4.4 0.9-14.4 2.1-26.2 3.3 10.8-1 18.9-1.9 21.1-2.3q2.9-0.5 5.1-1zm-58.4 6.4c10.4-0.9 22-2 32.2-3.1-9.4 1-20.9 2-32.2 3.1z"/><path class="u" d="m1120.2 187.1c-2.8-6.9-0.8-66.7-0.8-70.4 0-3.7-5.8-14.1-7.2-14.1-1.4 0-11.5 10-10.7 15.7 0.7 5.6 1.5 20.5 1.3 39.2-8.4 165.6 9.5 478.1 9.5 478.1l8.3-7.7 32-410.4-30.8-32.8c-0.1 3.7-0.3 5.3-1.6 2.4z"/><path class="b" d="m1122.2 112.4c1.9 17.5 0.6 38.6-0.3 51.1-0.4 4.8-0.3 10.6-0.2 15.3 0 2.3 0.1 4.3 0.1 5.9l30.8 32.8 7.2-72.4c-0.1-1.6-0.1-3.4 0-5.3 0.3-12.4-32.4-30.3-34.2-34.7-2.2-0.7-1.6 2.8-3.4 7.3z"/><path class="b" d="m1150.9 608.8q0 2.1 0 4c0-5.2-0.1-9.6 0-4z"/><path class="b" d="m1162.9 133c0.8 10-1.6 25.5-1.6 25.5 0 0-1.3-4.5-1.5-13.4l-39.2 482.8-8.3 7.7c0 0 35.4-4.2 36.2-6.2 1.5-3.9 2-4.1 2.3-7.8 0.1-1.5 0.2-5.3 0.1-8.8q0-1.9 0-4c-0.1-5.6 0-1.2 0 4 0.3 7.4 1.3 13.1 2.2 14.8 1.1 1.8 16.2-1.7 16.2-1.7 0 0 3-3.2 3.3-10.7 0.3-7.5 0.5-7.8 0.5-0.4 0.1 7.5 1.5 7.5 2.5 7.5 6 0.2 11.7-6.4 12-10.8 0.4-4.4-5.7-124.9-6.7-163.5 0.8-47.3-3.7-238.1-4-278-0.2-39.8-12-59.5-12-59.5l-2.1 5.1c0 0-0.7 7.4 0.1 17.4z"/><path class="j" d="m1186.8 597.8c-0.3-4.6-0.4-9.3-0.7-13.9-0.7-13.3-1.3-105.2-1.9-118.5-0.4-8.4-0.6-16.8-0.8-25.2 0.7-47.3-3.8-238.1-4.1-277.9-0.3-39.9-4.9-49.9-4.9-49.9l-9.9-2.1c0 0 0.1 5 0.8 15 0.8 10-1.6 25.5-1.6 25.5 0 0-1.8-6.3-1.5-18.7 0.3-12.5 0.6-19.3-1.2-23.7-9.2-4.5-32.5-4.9-36.4-3.7 1.9 17.4 0.6 38.6-0.3 51-0.4 4.9-0.3 10.6-0.2 15.4 0.2 7.4 0.3 12.5-1.4 8.2-2.9-6.8-0.8-66.6-0.9-70.3 0-3.8-7.4-6.4-8.8-6.4-1.5 0-3.9 2.4-3.2 8 0.8 5.6 1.6 20.6 1.4 39.3-8.4 165.5 9.4 478 9.4 478 0 0 2.7-0.3 6.4-0.8q0.6-0.1 1.3-0.2c1.9-0.3 4.1-0.6 6.3-1 3.1-0.5 6.2-1.1 8.9-1.6 2.5-0.6 4.6-1.1 5.9-1.6 1-0.4 1.5-0.8 1.5-1.1 0-2.5 0.2-25.5 0.6-29.3 0.3-3.7 1.7-0.5 1.8 8.8 0 9.3 1.1 16.8 2.2 18.7 0.6 1.1 5.6 1 9.7 0.8 3.2-0.2 5.5-0.5 5.5-0.5 0 0 2.4-2.5 2.7-9.9 0.3-7.5 2.1-10.6 2.1-3.1 0.1 7.5 0.6 7.3 1.5 8.1 0.7 0.6 1.9 0.2 2.8 0.1 0 0 7.9-1.9 7.8-4.3 0-2.3-0.8-13.2-0.8-13.2z"/><path class="d" d="m1173.1 614.7c0-0.2 0-0.7 0-1.3q0 0.1 0 0.2 0 0.1 0 0.3 0 0.4 0 0.8z"/><path class="d" d="m1173.1 614.8q0 0 0-0.1 0 0.1 0 0.1z"/><path class="d" d="m1163.5 620.7l0.1 1.1c0 0 0-0.4 0-1.1q-0.1 0-0.1 0z"/><path class="d" d="m1131.6 626.4c0 0.3 0 0.5 0 0.5q0 0 0-0.5c0 0 0 0 0 0z"/><path class="e" d="m1158.9 107.7c0 0 1 54.2 2.2 64.2 1 9.4 4.6 149.2 4.8 180.2 0 2 0 3.7 0 5-0.2 6.4-0.2 16.5-0.1 27.8 0.1 25 0.7 55.7 1 62.5 0.4 9.6 6.1 153.6 6.3 166.2q0-0.1 0-0.2c0.1-2.3 0.2-7.2 0.1-13.6 0-10.6-0.5-25.6-1.9-40.7-1.9-20.2-3.5-122.8-3.6-145.1-0.1-8.7 0.1-17.2 0.5-25.1 0.1-2.5 0.2-6.3 0.2-11-0.4-47.1-6.7-218-6.8-232.1-0.1-15.6-2.7-38.1-2.7-38.1z"/><path fill-rule="evenodd" class="e" d="m1182.7 614.2c0 0.1 0 0.1 0 0.2q0 0 0-0.2zm-11-428.4c0 0 0.9 43.6 1.8 51.6 0.8 7.6 3.3 125.4 3.4 150.3 0 1.6 0 3 0 4-0.1 5.1-0.2 13.3-0.1 22.3 0.2 20.2 0.7 44.8 0.9 50.4 0.1 3 0.9 25.1 1.8 51.5-0.7-32.2-1.1-68.2-1.2-78.4 0-7.1 0.1-13.9 0.5-20.2 0.1-2.1 0.1-5.1 0.1-8.9-0.3-37.9-4.9-180.6-5-192-0.1-12.5-2.2-30.6-2.2-30.6zm11 427.8q0 0.4 0 0.6c0-0.7 0.1-5.2 0.1-11.9-0.1-8.3-0.4-19.8-1.4-31.6 0.7 22.1 1.3 39.7 1.3 42.9zm-1.3-42.9c-0.6-17.1-1.3-37-1.9-54.8 0.5 24.4 1.1 46.6 1.8 53.6q0 0.6 0.1 1.2z"/><path class="e" d="m1137.3 104.2c0.1 1.6 3.5 35 4.2 46.2 0.8 11.9 8.4 141.7 9.2 156.6 0.8 15 6.8 111 7.2 124.1 0.4 10.1 3.6 150.4 5.1 177.8-1-30.5-3.7-197.2-5.1-229.5-1.7-39.3-6.6-137.9-8.2-160.3-1.5-22.5-12-112.4-12.4-114.9q0 0 0 0z"/><path class="e" d="m1112.4 434c2.4-9.9 6.8-142.6 6.6-164.4-0.1-21.8-2.6-125.3-2.7-137.1 0-11.8-2.2-21.8-2.6-21.2 1.1 1.9 2.5 110.3 3.2 157.6 0.1 2.1-1.8 31.1-1.8 33.3 0.3 48.7-2.7 131.8-2.7 131.8z"/><path class="e" d="m1124.6 104.7c0 0 0.8 3.7 1.5 6.8 0 0 9.8 99.2 10.4 124.8 0.5 25.5 4.1 92.3 4.9 101.7 0.1 0.6 0.1 0.8 0.1 0.7 0-2.3-3-103.6-3.1-119.8-0.1-16.8-7.2-106-9.3-114.8-2.1 0.1-3.7 0.3-4.5 0.6z"/><path class="e" d="m1131 566c0.2 27.2 0.5 56.3 0.6 60.4q0 0 0 0c0.1-7.3 1.1-171.9 1-180.8-0.1-9.3 0.4-97.8 0.4-97.8 0 0 11.3 55 13.1 64.4 1.9 9.4 8 154 8.7 162.8 0.8 8.7 6.4 45.5 6.4 45.5 0 0-2.4-30.5-4.3-48.6-1.8-18.1-2.8-134.7-9.8-165.9-6.9-31.3-14.9-73.1-14.9-73.1 0 0-1.2 88.4-1.3 116.4-0.1 9.4 0 102 0.1 116.7z"/><path class="e" d="m1149.8 583.4c0.9 6.1 1.7 8.9 1.7 8.9 0 0-0.7-3.5-1.7-8.9zm-9.8 39.9q0 0 0 0c0 0 1.9-39.9 1.8-52.9-0.1-13.1-0.4-125.3 0-114.7 0.4 7.7 5.3 113.4 8 127.7-0.4-2.5-0.9-5.5-1.3-9.2-1.5-12.5-8.7-158.4-8.9-143.4-0.3 14.8 0.4 191.3 0.4 192.5z"/><path class="v" d="m165.9 553.7c0 5-3.6 9.1-8.2 9.1-4.5 0-8.1-4.1-8.1-9.1 0-5 3.6-9.1 8.1-9.1 4.6 0 8.2 4.1 8.2 9.1z"/><path class="w" d="m163.8 556.9c-1 4.2-4.6 6.5-8.1 5.2-3.5-1.3-5.5-5.8-4.5-9.9 1-4.2 4.7-6.5 8.2-5.2 3.5 1.3 5.5 5.7 4.4 9.9z"/><path class="x" d="m162.7 556.7c-1 4.2-4.6 6.5-8.1 5.2-3.5-1.3-5.5-5.7-4.5-9.9 1-4.2 4.7-6.5 8.2-5.2 3.5 1.3 5.5 5.7 4.4 9.9z"/><path class="y" d="m161.7 556.3c-0.9 3.5-3.9 5.4-6.8 4.3-2.9-1-4.5-4.7-3.7-8.2 0.9-3.5 3.9-5.4 6.8-4.3 2.9 1.1 4.5 4.8 3.7 8.2z"/><path class="z" d="m152.7 560.8l7.5-12.7-0.5-0.4-7.5 12.6z"/><path class="v" d="m199.9 94.6c0 5-3.6 9.1-8.2 9.1-4.5 0-8.1-4.1-8.1-9.1 0-5.1 3.6-9.1 8.1-9.1 4.6 0 8.2 4 8.2 9.1z"/><path class="w" d="m197.8 97.7c-1 4.2-4.6 6.6-8.1 5.3-3.5-1.3-5.5-5.8-4.5-10 1-4.2 4.7-6.5 8.2-5.2 3.5 1.3 5.5 5.7 4.4 9.9z"/><path class="x" d="m196.7 97.6c-1 4.2-4.6 6.5-8.1 5.2-3.5-1.3-5.5-5.8-4.5-9.9 1-4.2 4.7-6.6 8.2-5.3 3.5 1.3 5.5 5.8 4.4 10z"/><path class="y" d="m195.7 97.2c-0.9 3.4-3.9 5.4-6.8 4.3-2.9-1.1-4.5-4.8-3.7-8.2 0.8-3.5 3.9-5.4 6.8-4.4 2.9 1.1 4.5 4.8 3.7 8.3z"/><path class="z" d="m186.7 101.7l7.5-12.7-0.5-0.4-7.5 12.5z"/><path class="v" d="m208.7 929.7c0 7.2-5.2 13-11.7 13-6.4 0-11.7-5.8-11.7-13 0-7.2 5.3-13 11.7-13 6.5 0 11.7 5.8 11.7 13z"/><path class="w" d="m205.7 934.2c-1.5 6-6.7 9.3-11.7 7.5-4.9-1.9-7.8-8.2-6.3-14.2 1.4-6 6.7-9.3 11.7-7.5 4.9 1.9 7.8 8.2 6.3 14.2z"/><path class="x" d="m204.1 934c-1.4 6-6.6 9.3-11.6 7.4-5-1.8-7.9-8.2-6.4-14.2 1.5-5.9 6.7-9.3 11.7-7.4 5 1.8 7.8 8.2 6.3 14.2z"/><path class="y" d="m202.6 933.4c-1.2 5-5.5 7.7-9.7 6.2-4.1-1.6-6.5-6.8-5.2-11.8 1.2-4.9 5.5-7.7 9.6-6.2 4.1 1.6 6.5 6.8 5.3 11.8z"/><path class="z" d="m189.8 939.8l10.7-18.1-0.8-0.6-10.7 18z"/><path class="v" d="m1154.2 583.1c0 5-3.7 9.1-8.2 9.1-4.5 0-8.1-4.1-8.1-9.1 0-5 3.6-9.1 8.1-9.1 4.5 0 8.2 4.1 8.2 9.1z"/><path class="w" d="m1152.1 586.3c-1 4.2-4.7 6.5-8.1 5.2-3.6-1.3-5.5-5.8-4.5-10 1-4.1 4.7-6.5 8.2-5.2 3.4 1.3 5.4 5.8 4.4 10z"/><path class="x" d="m1151 586.1c-1 4.2-4.7 6.5-8.2 5.2-3.4-1.3-5.4-5.7-4.4-9.9 1-4.2 4.7-6.5 8.1-5.3 3.5 1.4 5.5 5.8 4.5 10z"/><path class="y" d="m1149.9 585.7c-0.8 3.4-3.8 5.4-6.8 4.3-2.8-1.1-4.5-4.8-3.6-8.2 0.8-3.5 3.8-5.4 6.7-4.4 2.9 1.1 4.6 4.8 3.7 8.3z"/><path class="z" d="m1141 590.2l7.5-12.7-0.6-0.4-7.5 12.6z"/><path class="v" d="m1123.9 939.3c0 5-3.6 9.1-8.2 9.1-4.5 0-8.1-4.1-8.1-9.1 0-5 3.6-9.1 8.1-9.1 4.6 0 8.2 4.1 8.2 9.1z"/><path class="w" d="m1121.8 942.5c-1 4.1-4.6 6.5-8.1 5.2-3.5-1.3-5.5-5.8-4.5-10 1.1-4.1 4.7-6.5 8.2-5.2 3.5 1.3 5.5 5.8 4.4 10z"/><path class="x" d="m1120.7 942.3c-1 4.2-4.6 6.5-8.1 5.2-3.5-1.3-5.5-5.8-4.5-10 1-4.1 4.7-6.5 8.2-5.2 3.5 1.3 5.5 5.8 4.4 10z"/><path class="y" d="m1119.7 941.9c-0.9 3.5-3.9 5.4-6.8 4.3-2.9-1.1-4.5-4.8-3.7-8.2 0.8-3.5 3.9-5.4 6.8-4.4 2.8 1.1 4.5 4.8 3.7 8.3z"/><path class="z" d="m1110.7 946.4l7.5-12.7-0.6-0.4-7.4 12.5z"/><path class="v" d="m866.9 969.8c0 5-3.7 9.1-8.2 9.1-4.5 0-8.2-4.1-8.2-9.1 0-5.1 3.7-9.2 8.2-9.2 4.5 0 8.2 4.1 8.2 9.2z"/><path class="w" d="m864.8 972.9c-1 4.2-4.7 6.5-8.2 5.2-3.5-1.3-5.5-5.7-4.4-9.9 1-4.2 4.7-6.5 8.1-5.2 3.5 1.3 5.5 5.7 4.5 9.9z"/><path class="x" d="m863.7 972.7c-1 4.2-4.7 6.6-8.2 5.3-3.5-1.3-5.4-5.8-4.4-10 1-4.2 4.6-6.5 8.1-5.2 3.5 1.3 5.5 5.7 4.5 9.9z"/><path class="y" d="m862.6 972.3c-0.8 3.5-3.9 5.5-6.8 4.4-2.8-1.1-4.5-4.8-3.7-8.3 0.9-3.4 3.9-5.4 6.8-4.3 2.9 1.1 4.6 4.8 3.7 8.2z"/><path class="z" d="m853.7 976.9l7.5-12.8-0.6-0.4-7.5 12.6z"/><path class="v" d="m513.3 951.2c0 5.1-3.6 9.2-8.1 9.2-4.5 0-8.2-4.1-8.2-9.2 0-5 3.7-9.1 8.2-9.1 4.5 0 8.1 4.1 8.1 9.1z"/><path class="w" d="m511.3 954.4c-1.1 4.2-4.7 6.5-8.2 5.2-3.5-1.3-5.5-5.7-4.5-9.9 1.1-4.2 4.8-6.5 8.2-5.2 3.5 1.3 5.5 5.7 4.5 9.9z"/><path class="x" d="m510.2 954.2c-1 4.2-4.7 6.6-8.2 5.3-3.5-1.4-5.5-5.8-4.4-10 1-4.2 4.6-6.5 8.1-5.2 3.5 1.3 5.5 5.7 4.5 9.9z"/><path class="y" d="m509.1 953.8c-0.9 3.5-3.9 5.4-6.8 4.3-2.9-1-4.5-4.7-3.7-8.2 0.9-3.5 3.9-5.4 6.8-4.3 2.9 1.1 4.6 4.8 3.7 8.2z"/><path class="z" d="m500.1 958.3l7.6-12.7-0.6-0.4-7.5 12.6z"/><path class="v" d="m540.3 81.2c0 5-3.7 9.1-8.2 9.1-4.5 0-8.2-4.1-8.2-9.1 0-5.1 3.7-9.2 8.2-9.2 4.5 0 8.2 4.1 8.2 9.2z"/><path class="w" d="m538.2 84.3c-1.1 4.2-4.7 6.6-8.2 5.2-3.5-1.2-5.5-5.7-4.5-9.9 1.1-4.2 4.7-6.5 8.2-5.2 3.5 1.3 5.5 5.7 4.5 9.9z"/><path class="x" d="m537.1 84.1c-1 4.2-4.7 6.6-8.2 5.3-3.5-1.3-5.5-5.8-4.4-10 1-4.2 4.6-6.5 8.1-5.2 3.5 1.3 5.5 5.8 4.5 9.9z"/><path class="y" d="m536 83.8c-0.8 3.4-3.9 5.4-6.8 4.3-2.9-1.1-4.5-4.8-3.7-8.2 0.9-3.5 3.9-5.5 6.8-4.4 2.9 1.1 4.6 4.8 3.7 8.3z"/><path class="z" d="m527 88.3l7.6-12.7-0.6-0.5-7.5 12.6z"/><path class="v" d="m890.1 68c0 5-3.7 9.1-8.2 9.1-4.5 0-8.2-4.1-8.2-9.1 0-5 3.7-9.1 8.2-9.1 4.5 0 8.2 4.1 8.2 9.1z"/><path class="w" d="m888 71.2c-1 4.2-4.7 6.5-8.2 5.2-3.5-1.3-5.5-5.8-4.4-9.9 1-4.2 4.6-6.6 8.1-5.3 3.5 1.3 5.5 5.8 4.5 10z"/><path class="x" d="m886.9 71c-1 4.2-4.7 6.5-8.2 5.2-3.5-1.3-5.4-5.7-4.4-9.9 1-4.2 4.6-6.6 8.1-5.3 3.5 1.3 5.5 5.8 4.5 10z"/><path class="y" d="m885.8 70.6c-0.8 3.4-3.9 5.4-6.8 4.3-2.9-1.1-4.5-4.8-3.7-8.2 0.9-3.5 3.9-5.4 6.8-4.4 2.9 1.1 4.5 4.8 3.7 8.3z"/><path class="z" d="m876.8 75.1l7.6-12.7-0.6-0.4-7.5 12.6z"/><path class="v" d="m1151.1 132c0 5-3.6 9.1-8.1 9.1-4.6 0-8.2-4.1-8.2-9.1 0-5.1 3.6-9.1 8.2-9.1 4.5 0 8.1 4 8.1 9.1z"/><path class="w" d="m1149 135.1c-1 4.2-4.6 6.6-8.1 5.3-3.5-1.3-5.5-5.8-4.5-10 1.1-4.1 4.7-6.5 8.2-5.2 3.5 1.3 5.5 5.7 4.4 9.9z"/><path class="x" d="m1148 135c-1.1 4.2-4.8 6.5-8.2 5.2-3.5-1.3-5.5-5.8-4.5-9.9 1-4.2 4.7-6.6 8.2-5.3 3.5 1.3 5.5 5.8 4.5 10z"/><path class="y" d="m1146.9 134.6c-0.9 3.4-3.9 5.4-6.8 4.3-2.9-1.1-4.6-4.8-3.7-8.2 0.8-3.5 3.9-5.5 6.8-4.4 2.9 1.1 4.5 4.8 3.7 8.3z"/><path class="z" d="m1137.9 139.1l7.5-12.7-0.5-0.5-7.5 12.6z"/><path class="A" d="m266.4 824.2c-0.2-0.1-0.3 0.1-0.3 0.3 0.1 0.6 0.2 1.3 0.8 1.5 0.3 0 0.7-0.4 0.5-0.7-0.2-0.4-0.6-0.8-1-1.1z"/><path class="A" d="m264.3 864.2c-0.2-0.1-0.2 0.3-0.1 0.3 0.4 0.3 0.8 0.9 1.4 0.8 0.2-0.1 0.3-0.4 0.1-0.5-0.3-0.5-0.9-0.4-1.4-0.6z"/><path class="A" d="m265.3 848.8c-0.3 0-0.3 0.5-0.2 0.6 0.3 0.4 0.4 1 0.9 1 0.3 0 0.5-0.4 0.4-0.7-0.2-0.4-0.6-0.8-1.1-0.9z"/><path class="A" d="m264.4 852.9c-0.2 0-0.3 0.3-0.1 0.4 0.3 0.4 0.8 1.1 1.4 0.9 0.3-0.1 0.4-0.6 0.1-0.8-0.4-0.3-0.9-0.5-1.4-0.5z"/><path class="A" d="m293.1 877.4q-0.2 0-0.4 0.1c-0.4 0.1-0.2 0.7 0.2 0.5 0.2-0.1 0.3-0.2 0.5-0.3 0.1-0.2-0.1-0.4-0.3-0.3z"/><path class="A" d="m307.8 870.7c0-0.2-0.4-0.2-0.5-0.1 0.2-0.1 0.1 0-0.1 0-0.1 0-0.2-0.1-0.4-0.1-0.2 0-0.4 0.1-0.6 0.2-0.2 0.1-0.2 0.4 0 0.5 0.4 0.2 1.6 0.2 1.6-0.5z"/><path class="A" d="m263.8 828.9c0.2 0.1 0.5 0.2 0.6 0.4 0.2 0.2 0 0.3-0.2 0.3-0.3 0-0.6-0.3-0.7-0.6 0-0.2 0.2-0.2 0.3-0.1z"/><path class="A" d="m261.3 831.1c0.3 0 0.5 0.1 0.7 0.3 0.1 0.1 0.1 0.3-0.1 0.3-0.3 0-0.4-0.2-0.7-0.3-0.1-0.1-0.1-0.3 0.1-0.3z"/><path class="A" d="m798.8 867.8q0.2-0.1 0.3 0c0.3 0.1 0.8-0.2 1-0.3 0.3-0.1 0.3 0.4 0.1 0.5-0.4 0.3-0.8 0.8-1.3 0.7-0.6 0-0.5-0.8-0.1-1q0 0 0 0.1z"/><path class="A" d="m813.4 870.2c-0.4 0-0.9 0-1.1 0.3-0.2 0.3-0.2 0.6 0.2 0.6 0.3-0.1 0.6-0.3 0.9-0.4 0.2-0.1 0.3-0.5 0-0.5z"/><path class="A" d="m818.1 872.3c-0.5-0.3-1.2-0.1-1.5 0.4-0.2 0.2 0 0.5 0.3 0.5 0.3-0.1 0.6-0.3 1-0.4 0.2 0 0.5-0.4 0.2-0.5z"/><path class="A" d="m805.2 868.1c-0.4 0.3-0.9 0.3-1 0.8q0 0.1 0.1 0.2c0.5 0.2 1.1-0.3 1.3-0.7 0.2-0.3-0.2-0.5-0.4-0.3z"/><path class="A" d="m790.3 888.5q-0.2 0-0.5 0c-0.4-0.1-0.5 0.5 0 0.5 0.2 0 0.4 0 0.6-0.1 0.2-0.1 0.1-0.3-0.1-0.4z"/><path class="A" d="m796.4 872.4c0.2-0.3-0.4-0.4-0.6-0.3-0.3 0.2-0.5 0.4-0.6 0.7-0.1 0.4 0.5 0.5 0.7 0.3 0.2-0.2 0.4-0.4 0.5-0.7z"/><path class="A" d="m801.6 877.1c0.1-0.4-0.5-0.6-0.7-0.3-0.2 0.3-0.6 0.4-0.7 0.9 0 0.3 0.6 0.4 0.8 0.2 0.2-0.2 0.5-0.5 0.6-0.8z"/><path class="A" d="m809 876.7c-0.4 0.1-0.9 0.1-1.2 0.4-0.2 0.2 0.1 0.5 0.4 0.5 0.4 0 0.9-0.1 1.2-0.5 0.3-0.3-0.2-0.5-0.4-0.4z"/><path class="A" d="m808.8 883.8c-0.3-0.1-0.7-0.2-1.1 0-0.4 0.2-0.3 0.6 0.1 0.7 0.3 0 0.7 0 1 0 0.4 0 0.4-0.5 0-0.7z"/><path class="A" d="m806.4 889.1c0.1-0.2-0.2-0.4-0.4-0.3 0.2-0.1 0.1 0-0.1-0.1-0.1-0.1-0.2-0.1-0.3-0.2-0.2-0.1-0.4-0.1-0.6-0.1-0.3 0-0.5 0.3-0.3 0.5 0.3 0.3 1.4 0.8 1.7 0.2z"/><g style="opacity:.8;mix-blend-mode:multiply"></g><g style="opacity:.5;mix-blend-mode:multiply"></g><g style="opacity:.8;mix-blend-mode:multiply"></g><g style="opacity:.5;mix-blend-mode:multiply"></g><g style="opacity:.8;mix-blend-mode:multiply"></g><g style="opacity:.5;mix-blend-mode:multiply"></g><g style="opacity:.5;mix-blend-mode:multiply"></g><path class="B" d="m117.3 947.7c0 0-8 25.5-4.1 53.4 0 0 0.9 11.5 2.9 11.7 2.1 0.2-6.4-43.5 1.2-65.1z"/><g style="opacity:.8;mix-blend-mode:multiply"></g><g style="opacity:.5;mix-blend-mode:multiply"></g><g style="opacity:.8;mix-blend-mode:multiply"></g><g style="opacity:.5;mix-blend-mode:multiply"></g><path class="C" d="m696.1 1044q0-0.1 0-0.3c0-0.5 0-0.3 0 0.3z"/><path class="C" d="m720.1 1052q0 0 0 0.3 0-0.3 0-0.3z"/><g style="opacity:.8;mix-blend-mode:multiply"></g><g style="opacity:.5;mix-blend-mode:multiply"></g><g style="opacity:.5;mix-blend-mode:multiply"></g><path class="C" d="m887.1 1044q0-0.1 0-0.2c-0.1-0.4 0-0.3 0 0.2z"/><path class="C" d="m906.5 1050.5q0 0 0 0.2 0-0.2 0-0.2z"/><path class="C" d="m868.7 1038.5q-1.1-3.4-2-7.3c0 0 0.9 3.2 2 7.3z"/><g style="opacity:.7;mix-blend-mode:multiply"><g style="opacity:.8;mix-blend-mode:multiply"></g><g style="opacity:.5;mix-blend-mode:multiply"></g></g><g style="opacity:.8;mix-blend-mode:multiply"></g><g style="opacity:.5;mix-blend-mode:multiply"></g><path class="C" d="m1131.6 1037.2q1.3-4.2 2.5-9c0 0-1.2 3.9-2.5 9z"/><g style="opacity:.8;mix-blend-mode:multiply"></g><g style="opacity:.5;mix-blend-mode:multiply"></g><g style="opacity:.5;mix-blend-mode:multiply"></g><path class="C" d="m917.9 1044q0-0.1 0-0.2c0.1-0.4 0-0.3 0 0.2z"/><path class="C" d="m898.5 1050.5q0 0 0 0.2 0-0.2 0-0.2z"/><path class="C" d="m936.3 1038.5q1-3.4 2-7.3c0 0-0.9 3.2-2 7.3z"/><g style="opacity:.8;mix-blend-mode:multiply"></g><g style="opacity:.5;mix-blend-mode:multiply"></g><g style="opacity:.8;mix-blend-mode:multiply"></g><g style="opacity:.5;mix-blend-mode:multiply"></g><g style="opacity:.8;mix-blend-mode:multiply"></g><g style="opacity:.5;mix-blend-mode:multiply"></g><g style="opacity:.5;mix-blend-mode:multiply"></g><path class="C" d="m708.1 1050.5q0 0 0.1 0.2-0.1-0.2-0.1-0.2z"/><path class="D" d="m262.4 1013.4c-1.4-1.3-3.6-2.1-5.9-2.4q-0.3-0.1-0.6-0.1c-4.3-0.3-10.6-1.7-12.5 3.4-1 3 1.7 5.1 4 6 2.2 0.9 4.9 1 7.3 1.1 2.3 0 4.7-0.5 6.8-1.5 2.4-1.3 3-4.6 0.9-6.5z"/><path class="D" d="m1001.9 1042.9c0-0.1 0.1-0.2 0.2-0.2q0.4-0.3 0.9-0.3 0.1 0 0.2 0 0.2 0 0.5 0 0.3 0 0.7 0c0.7 0 1.3 0.4 1.5 1.1 0.3 1-0.3 1.7-1.1 2-0.9 0.4-2.6 0.3-3.2-0.7-0.3-0.6-0.3-1.4 0.3-1.9z"/><path class="D" d="m1130.4 1025.8c1.3-0.6 2.7-0.7 3.9 0.1q0.4 0.3 0.7 0.7 0.4 0.1 0.8 0.3c0.8 0.5 1.3 1.3 1.4 2.2 0.2 1.2-0.3 2.3-1.5 2.7-2.7 0.8-5.7-0.7-6.3-3.4-0.2-0.9 0.1-2.2 1-2.6z"/><path class="D" d="m1077.2 1029.9c0.3-0.3 0.8-0.5 1.2-0.6q0.1-0.1 0.2-0.1c0.6-0.4 1.5-0.5 2.2-0.1q0.7 0.5 1.4 1c0.8 0.8 0.9 2 0.5 3-0.7 1.5-2.6 1.4-3.9 1.4-1 0-1.9-0.7-2.2-1.7-0.3-1-0.1-2.1 0.6-2.9z"/><path class="D" d="m1170.6 1030.1c0.5-0.2 1.1-0.2 1.6-0.1q0.3-0.1 0.7 0c1.5 0.4 2.8 1.2 3.9 2.2 1.4 1.2 0.5 3.2-0.9 3.7-2.9 1.1-5.8-0.4-6.9-3.1-0.4-1.2 0.5-2.3 1.6-2.7z"/><path class="D" d="m1044.9 1041.4c2 0 2 3.2 0 3.2-2.1 0-2.1-3.2 0-3.2z"/></svg>